<?xml version="1.0" encoding="UTF-8" standalone="no"?>
<!-- This is a Stata 18.5 generated SVG file (http://www.stata.com) -->

<svg version="1.1" width="7.500in" height="4.500in" viewBox="0 0 5400 3240" xmlns="http://www.w3.org/2000/svg" xmlns:xlink="http://www.w3.org/1999/xlink">
	<desc>Stata Graph - Graph</desc>
	<rect x="0" y="0" width="5400" height="3240" style="fill:#FFFFFF;stroke:none"/>
	<rect x="0.00" y="0.00" width="5400.00" height="3240.00" style="fill:#FFFFFF"/>
	<rect x="3.24" y="3.24" width="5393.52" height="3233.52" style="fill:none;stroke:#FFFFFF;stroke-width:6.48"/>
	<rect x="505.24" y="113.40" width="4781.36" height="2653.26" style="fill:#FFFFFF"/>
	<rect x="508.48" y="116.64" width="4774.88" height="2646.78" style="fill:none;stroke:#FFFFFF;stroke-width:6.48"/>
	<line x1="505.24" y1="2766.66" x2="570.04" y2="2766.66" style="stroke:#F0F0F0;stroke-width:9.72"/>
	<line x1="602.44" y1="2766.66" x2="667.24" y2="2766.66" style="stroke:#F0F0F0;stroke-width:9.72"/>
	<line x1="699.64" y1="2766.66" x2="764.44" y2="2766.66" style="stroke:#F0F0F0;stroke-width:9.72"/>
	<line x1="796.84" y1="2766.66" x2="861.64" y2="2766.66" style="stroke:#F0F0F0;stroke-width:9.72"/>
	<line x1="894.04" y1="2766.66" x2="958.84" y2="2766.66" style="stroke:#F0F0F0;stroke-width:9.72"/>
	<line x1="991.24" y1="2766.66" x2="1056.04" y2="2766.66" style="stroke:#F0F0F0;stroke-width:9.72"/>
	<line x1="1088.44" y1="2766.66" x2="1153.24" y2="2766.66" style="stroke:#F0F0F0;stroke-width:9.72"/>
	<line x1="1185.64" y1="2766.66" x2="1250.44" y2="2766.66" style="stroke:#F0F0F0;stroke-width:9.72"/>
	<line x1="1282.84" y1="2766.66" x2="1347.64" y2="2766.66" style="stroke:#F0F0F0;stroke-width:9.72"/>
	<line x1="1380.04" y1="2766.66" x2="1444.84" y2="2766.66" style="stroke:#F0F0F0;stroke-width:9.72"/>
	<line x1="1477.24" y1="2766.66" x2="1542.04" y2="2766.66" style="stroke:#F0F0F0;stroke-width:9.72"/>
	<line x1="1574.44" y1="2766.66" x2="1639.24" y2="2766.66" style="stroke:#F0F0F0;stroke-width:9.72"/>
	<line x1="1671.64" y1="2766.66" x2="1736.44" y2="2766.66" style="stroke:#F0F0F0;stroke-width:9.72"/>
	<line x1="1768.84" y1="2766.66" x2="1833.64" y2="2766.66" style="stroke:#F0F0F0;stroke-width:9.72"/>
	<line x1="1866.04" y1="2766.66" x2="1930.84" y2="2766.66" style="stroke:#F0F0F0;stroke-width:9.72"/>
	<line x1="1963.24" y1="2766.66" x2="2028.04" y2="2766.66" style="stroke:#F0F0F0;stroke-width:9.72"/>
	<line x1="2060.44" y1="2766.66" x2="2125.24" y2="2766.66" style="stroke:#F0F0F0;stroke-width:9.72"/>
	<line x1="2157.64" y1="2766.66" x2="2222.44" y2="2766.66" style="stroke:#F0F0F0;stroke-width:9.72"/>
	<line x1="2254.84" y1="2766.66" x2="2319.64" y2="2766.66" style="stroke:#F0F0F0;stroke-width:9.72"/>
	<line x1="2352.04" y1="2766.66" x2="2416.84" y2="2766.66" style="stroke:#F0F0F0;stroke-width:9.72"/>
	<line x1="2449.24" y1="2766.66" x2="2514.04" y2="2766.66" style="stroke:#F0F0F0;stroke-width:9.72"/>
	<line x1="2546.44" y1="2766.66" x2="2611.24" y2="2766.66" style="stroke:#F0F0F0;stroke-width:9.72"/>
	<line x1="2643.64" y1="2766.66" x2="2708.44" y2="2766.66" style="stroke:#F0F0F0;stroke-width:9.72"/>
	<line x1="2740.84" y1="2766.66" x2="2805.64" y2="2766.66" style="stroke:#F0F0F0;stroke-width:9.72"/>
	<line x1="2838.04" y1="2766.66" x2="2902.84" y2="2766.66" style="stroke:#F0F0F0;stroke-width:9.72"/>
	<line x1="2935.24" y1="2766.66" x2="3000.04" y2="2766.66" style="stroke:#F0F0F0;stroke-width:9.72"/>
	<line x1="3032.44" y1="2766.66" x2="3097.24" y2="2766.66" style="stroke:#F0F0F0;stroke-width:9.72"/>
	<line x1="3129.64" y1="2766.66" x2="3194.44" y2="2766.66" style="stroke:#F0F0F0;stroke-width:9.72"/>
	<line x1="3226.84" y1="2766.66" x2="3291.64" y2="2766.66" style="stroke:#F0F0F0;stroke-width:9.72"/>
	<line x1="3324.04" y1="2766.66" x2="3388.84" y2="2766.66" style="stroke:#F0F0F0;stroke-width:9.72"/>
	<line x1="3421.24" y1="2766.66" x2="3486.04" y2="2766.66" style="stroke:#F0F0F0;stroke-width:9.72"/>
	<line x1="3518.44" y1="2766.66" x2="3583.24" y2="2766.66" style="stroke:#F0F0F0;stroke-width:9.72"/>
	<line x1="3615.64" y1="2766.66" x2="3680.44" y2="2766.66" style="stroke:#F0F0F0;stroke-width:9.72"/>
	<line x1="3712.84" y1="2766.66" x2="3777.64" y2="2766.66" style="stroke:#F0F0F0;stroke-width:9.72"/>
	<line x1="3810.04" y1="2766.66" x2="3874.84" y2="2766.66" style="stroke:#F0F0F0;stroke-width:9.72"/>
	<line x1="3907.24" y1="2766.66" x2="3972.04" y2="2766.66" style="stroke:#F0F0F0;stroke-width:9.72"/>
	<line x1="4004.44" y1="2766.66" x2="4069.24" y2="2766.66" style="stroke:#F0F0F0;stroke-width:9.72"/>
	<line x1="4101.64" y1="2766.66" x2="4166.44" y2="2766.66" style="stroke:#F0F0F0;stroke-width:9.72"/>
	<line x1="4198.84" y1="2766.66" x2="4263.64" y2="2766.66" style="stroke:#F0F0F0;stroke-width:9.72"/>
	<line x1="4296.04" y1="2766.66" x2="4360.84" y2="2766.66" style="stroke:#F0F0F0;stroke-width:9.72"/>
	<line x1="4393.24" y1="2766.66" x2="4458.04" y2="2766.66" style="stroke:#F0F0F0;stroke-width:9.72"/>
	<line x1="4490.44" y1="2766.66" x2="4555.24" y2="2766.66" style="stroke:#F0F0F0;stroke-width:9.72"/>
	<line x1="4587.64" y1="2766.66" x2="4652.44" y2="2766.66" style="stroke:#F0F0F0;stroke-width:9.72"/>
	<line x1="4684.84" y1="2766.66" x2="4749.64" y2="2766.66" style="stroke:#F0F0F0;stroke-width:9.72"/>
	<line x1="4782.04" y1="2766.66" x2="4846.84" y2="2766.66" style="stroke:#F0F0F0;stroke-width:9.72"/>
	<line x1="4879.24" y1="2766.66" x2="4944.04" y2="2766.66" style="stroke:#F0F0F0;stroke-width:9.72"/>
	<line x1="4976.44" y1="2766.66" x2="5041.24" y2="2766.66" style="stroke:#F0F0F0;stroke-width:9.72"/>
	<line x1="5073.64" y1="2766.66" x2="5138.44" y2="2766.66" style="stroke:#F0F0F0;stroke-width:9.72"/>
	<line x1="5170.84" y1="2766.66" x2="5235.64" y2="2766.66" style="stroke:#F0F0F0;stroke-width:9.72"/>
	<line x1="5268.04" y1="2766.66" x2="5286.60" y2="2766.66" style="stroke:#F0F0F0;stroke-width:9.72"/>
	<line x1="505.24" y1="1906.03" x2="570.04" y2="1906.03" style="stroke:#F0F0F0;stroke-width:9.72"/>
	<line x1="602.44" y1="1906.03" x2="667.24" y2="1906.03" style="stroke:#F0F0F0;stroke-width:9.72"/>
	<line x1="699.64" y1="1906.03" x2="764.44" y2="1906.03" style="stroke:#F0F0F0;stroke-width:9.72"/>
	<line x1="796.84" y1="1906.03" x2="861.64" y2="1906.03" style="stroke:#F0F0F0;stroke-width:9.72"/>
	<line x1="894.04" y1="1906.03" x2="958.84" y2="1906.03" style="stroke:#F0F0F0;stroke-width:9.72"/>
	<line x1="991.24" y1="1906.03" x2="1056.04" y2="1906.03" style="stroke:#F0F0F0;stroke-width:9.72"/>
	<line x1="1088.44" y1="1906.03" x2="1153.24" y2="1906.03" style="stroke:#F0F0F0;stroke-width:9.72"/>
	<line x1="1185.64" y1="1906.03" x2="1250.44" y2="1906.03" style="stroke:#F0F0F0;stroke-width:9.72"/>
	<line x1="1282.84" y1="1906.03" x2="1347.64" y2="1906.03" style="stroke:#F0F0F0;stroke-width:9.72"/>
	<line x1="1380.04" y1="1906.03" x2="1444.84" y2="1906.03" style="stroke:#F0F0F0;stroke-width:9.72"/>
	<line x1="1477.24" y1="1906.03" x2="1542.04" y2="1906.03" style="stroke:#F0F0F0;stroke-width:9.72"/>
	<line x1="1574.44" y1="1906.03" x2="1639.24" y2="1906.03" style="stroke:#F0F0F0;stroke-width:9.72"/>
	<line x1="1671.64" y1="1906.03" x2="1736.44" y2="1906.03" style="stroke:#F0F0F0;stroke-width:9.72"/>
	<line x1="1768.84" y1="1906.03" x2="1833.64" y2="1906.03" style="stroke:#F0F0F0;stroke-width:9.72"/>
	<line x1="1866.04" y1="1906.03" x2="1930.84" y2="1906.03" style="stroke:#F0F0F0;stroke-width:9.72"/>
	<line x1="1963.24" y1="1906.03" x2="2028.04" y2="1906.03" style="stroke:#F0F0F0;stroke-width:9.72"/>
	<line x1="2060.44" y1="1906.03" x2="2125.24" y2="1906.03" style="stroke:#F0F0F0;stroke-width:9.72"/>
	<line x1="2157.64" y1="1906.03" x2="2222.44" y2="1906.03" style="stroke:#F0F0F0;stroke-width:9.72"/>
	<line x1="2254.84" y1="1906.03" x2="2319.64" y2="1906.03" style="stroke:#F0F0F0;stroke-width:9.72"/>
	<line x1="2352.04" y1="1906.03" x2="2416.84" y2="1906.03" style="stroke:#F0F0F0;stroke-width:9.72"/>
	<line x1="2449.24" y1="1906.03" x2="2514.04" y2="1906.03" style="stroke:#F0F0F0;stroke-width:9.72"/>
	<line x1="2546.44" y1="1906.03" x2="2611.24" y2="1906.03" style="stroke:#F0F0F0;stroke-width:9.72"/>
	<line x1="2643.64" y1="1906.03" x2="2708.44" y2="1906.03" style="stroke:#F0F0F0;stroke-width:9.72"/>
	<line x1="2740.84" y1="1906.03" x2="2805.64" y2="1906.03" style="stroke:#F0F0F0;stroke-width:9.72"/>
	<line x1="2838.04" y1="1906.03" x2="2902.84" y2="1906.03" style="stroke:#F0F0F0;stroke-width:9.72"/>
	<line x1="2935.24" y1="1906.03" x2="3000.04" y2="1906.03" style="stroke:#F0F0F0;stroke-width:9.72"/>
	<line x1="3032.44" y1="1906.03" x2="3097.24" y2="1906.03" style="stroke:#F0F0F0;stroke-width:9.72"/>
	<line x1="3129.64" y1="1906.03" x2="3194.44" y2="1906.03" style="stroke:#F0F0F0;stroke-width:9.72"/>
	<line x1="3226.84" y1="1906.03" x2="3291.64" y2="1906.03" style="stroke:#F0F0F0;stroke-width:9.72"/>
	<line x1="3324.04" y1="1906.03" x2="3388.84" y2="1906.03" style="stroke:#F0F0F0;stroke-width:9.72"/>
	<line x1="3421.24" y1="1906.03" x2="3486.04" y2="1906.03" style="stroke:#F0F0F0;stroke-width:9.72"/>
	<line x1="3518.44" y1="1906.03" x2="3583.24" y2="1906.03" style="stroke:#F0F0F0;stroke-width:9.72"/>
	<line x1="3615.64" y1="1906.03" x2="3680.44" y2="1906.03" style="stroke:#F0F0F0;stroke-width:9.72"/>
	<line x1="3712.84" y1="1906.03" x2="3777.64" y2="1906.03" style="stroke:#F0F0F0;stroke-width:9.72"/>
	<line x1="3810.04" y1="1906.03" x2="3874.84" y2="1906.03" style="stroke:#F0F0F0;stroke-width:9.72"/>
	<line x1="3907.24" y1="1906.03" x2="3972.04" y2="1906.03" style="stroke:#F0F0F0;stroke-width:9.72"/>
	<line x1="4004.44" y1="1906.03" x2="4069.24" y2="1906.03" style="stroke:#F0F0F0;stroke-width:9.72"/>
	<line x1="4101.64" y1="1906.03" x2="4166.44" y2="1906.03" style="stroke:#F0F0F0;stroke-width:9.72"/>
	<line x1="4198.84" y1="1906.03" x2="4263.64" y2="1906.03" style="stroke:#F0F0F0;stroke-width:9.72"/>
	<line x1="4296.04" y1="1906.03" x2="4360.84" y2="1906.03" style="stroke:#F0F0F0;stroke-width:9.72"/>
	<line x1="4393.24" y1="1906.03" x2="4458.04" y2="1906.03" style="stroke:#F0F0F0;stroke-width:9.72"/>
	<line x1="4490.44" y1="1906.03" x2="4555.24" y2="1906.03" style="stroke:#F0F0F0;stroke-width:9.72"/>
	<line x1="4587.64" y1="1906.03" x2="4652.44" y2="1906.03" style="stroke:#F0F0F0;stroke-width:9.72"/>
	<line x1="4684.84" y1="1906.03" x2="4749.64" y2="1906.03" style="stroke:#F0F0F0;stroke-width:9.72"/>
	<line x1="4782.04" y1="1906.03" x2="4846.84" y2="1906.03" style="stroke:#F0F0F0;stroke-width:9.72"/>
	<line x1="4879.24" y1="1906.03" x2="4944.04" y2="1906.03" style="stroke:#F0F0F0;stroke-width:9.72"/>
	<line x1="4976.44" y1="1906.03" x2="5041.24" y2="1906.03" style="stroke:#F0F0F0;stroke-width:9.72"/>
	<line x1="5073.64" y1="1906.03" x2="5138.44" y2="1906.03" style="stroke:#F0F0F0;stroke-width:9.72"/>
	<line x1="5170.84" y1="1906.03" x2="5235.64" y2="1906.03" style="stroke:#F0F0F0;stroke-width:9.72"/>
	<line x1="5268.04" y1="1906.03" x2="5286.60" y2="1906.03" style="stroke:#F0F0F0;stroke-width:9.72"/>
	<line x1="505.24" y1="1045.41" x2="570.04" y2="1045.41" style="stroke:#F0F0F0;stroke-width:9.72"/>
	<line x1="602.44" y1="1045.41" x2="667.24" y2="1045.41" style="stroke:#F0F0F0;stroke-width:9.72"/>
	<line x1="699.64" y1="1045.41" x2="764.44" y2="1045.41" style="stroke:#F0F0F0;stroke-width:9.72"/>
	<line x1="796.84" y1="1045.41" x2="861.64" y2="1045.41" style="stroke:#F0F0F0;stroke-width:9.72"/>
	<line x1="894.04" y1="1045.41" x2="958.84" y2="1045.41" style="stroke:#F0F0F0;stroke-width:9.72"/>
	<line x1="991.24" y1="1045.41" x2="1056.04" y2="1045.41" style="stroke:#F0F0F0;stroke-width:9.72"/>
	<line x1="1088.44" y1="1045.41" x2="1153.24" y2="1045.41" style="stroke:#F0F0F0;stroke-width:9.72"/>
	<line x1="1185.64" y1="1045.41" x2="1250.44" y2="1045.41" style="stroke:#F0F0F0;stroke-width:9.72"/>
	<line x1="1282.84" y1="1045.41" x2="1347.64" y2="1045.41" style="stroke:#F0F0F0;stroke-width:9.72"/>
	<line x1="1380.04" y1="1045.41" x2="1444.84" y2="1045.41" style="stroke:#F0F0F0;stroke-width:9.72"/>
	<line x1="1477.24" y1="1045.41" x2="1542.04" y2="1045.41" style="stroke:#F0F0F0;stroke-width:9.72"/>
	<line x1="1574.44" y1="1045.41" x2="1639.24" y2="1045.41" style="stroke:#F0F0F0;stroke-width:9.72"/>
	<line x1="1671.64" y1="1045.41" x2="1736.44" y2="1045.41" style="stroke:#F0F0F0;stroke-width:9.72"/>
	<line x1="1768.84" y1="1045.41" x2="1833.64" y2="1045.41" style="stroke:#F0F0F0;stroke-width:9.72"/>
	<line x1="1866.04" y1="1045.41" x2="1930.84" y2="1045.41" style="stroke:#F0F0F0;stroke-width:9.72"/>
	<line x1="1963.24" y1="1045.41" x2="2028.04" y2="1045.41" style="stroke:#F0F0F0;stroke-width:9.72"/>
	<line x1="2060.44" y1="1045.41" x2="2125.24" y2="1045.41" style="stroke:#F0F0F0;stroke-width:9.72"/>
	<line x1="2157.64" y1="1045.41" x2="2222.44" y2="1045.41" style="stroke:#F0F0F0;stroke-width:9.72"/>
	<line x1="2254.84" y1="1045.41" x2="2319.64" y2="1045.41" style="stroke:#F0F0F0;stroke-width:9.72"/>
	<line x1="2352.04" y1="1045.41" x2="2416.84" y2="1045.41" style="stroke:#F0F0F0;stroke-width:9.72"/>
	<line x1="2449.24" y1="1045.41" x2="2514.04" y2="1045.41" style="stroke:#F0F0F0;stroke-width:9.72"/>
	<line x1="2546.44" y1="1045.41" x2="2611.24" y2="1045.41" style="stroke:#F0F0F0;stroke-width:9.72"/>
	<line x1="2643.64" y1="1045.41" x2="2708.44" y2="1045.41" style="stroke:#F0F0F0;stroke-width:9.72"/>
	<line x1="2740.84" y1="1045.41" x2="2805.64" y2="1045.41" style="stroke:#F0F0F0;stroke-width:9.72"/>
	<line x1="2838.04" y1="1045.41" x2="2902.84" y2="1045.41" style="stroke:#F0F0F0;stroke-width:9.72"/>
	<line x1="2935.24" y1="1045.41" x2="3000.04" y2="1045.41" style="stroke:#F0F0F0;stroke-width:9.72"/>
	<line x1="3032.44" y1="1045.41" x2="3097.24" y2="1045.41" style="stroke:#F0F0F0;stroke-width:9.72"/>
	<line x1="3129.64" y1="1045.41" x2="3194.44" y2="1045.41" style="stroke:#F0F0F0;stroke-width:9.72"/>
	<line x1="3226.84" y1="1045.41" x2="3291.64" y2="1045.41" style="stroke:#F0F0F0;stroke-width:9.72"/>
	<line x1="3324.04" y1="1045.41" x2="3388.84" y2="1045.41" style="stroke:#F0F0F0;stroke-width:9.72"/>
	<line x1="3421.24" y1="1045.41" x2="3486.04" y2="1045.41" style="stroke:#F0F0F0;stroke-width:9.72"/>
	<line x1="3518.44" y1="1045.41" x2="3583.24" y2="1045.41" style="stroke:#F0F0F0;stroke-width:9.72"/>
	<line x1="3615.64" y1="1045.41" x2="3680.44" y2="1045.41" style="stroke:#F0F0F0;stroke-width:9.72"/>
	<line x1="3712.84" y1="1045.41" x2="3777.64" y2="1045.41" style="stroke:#F0F0F0;stroke-width:9.72"/>
	<line x1="3810.04" y1="1045.41" x2="3874.84" y2="1045.41" style="stroke:#F0F0F0;stroke-width:9.72"/>
	<line x1="3907.24" y1="1045.41" x2="3972.04" y2="1045.41" style="stroke:#F0F0F0;stroke-width:9.72"/>
	<line x1="4004.44" y1="1045.41" x2="4069.24" y2="1045.41" style="stroke:#F0F0F0;stroke-width:9.72"/>
	<line x1="4101.64" y1="1045.41" x2="4166.44" y2="1045.41" style="stroke:#F0F0F0;stroke-width:9.72"/>
	<line x1="4198.84" y1="1045.41" x2="4263.64" y2="1045.41" style="stroke:#F0F0F0;stroke-width:9.72"/>
	<line x1="4296.04" y1="1045.41" x2="4360.84" y2="1045.41" style="stroke:#F0F0F0;stroke-width:9.72"/>
	<line x1="4393.24" y1="1045.41" x2="4458.04" y2="1045.41" style="stroke:#F0F0F0;stroke-width:9.72"/>
	<line x1="4490.44" y1="1045.41" x2="4555.24" y2="1045.41" style="stroke:#F0F0F0;stroke-width:9.72"/>
	<line x1="4587.64" y1="1045.41" x2="4652.44" y2="1045.41" style="stroke:#F0F0F0;stroke-width:9.72"/>
	<line x1="4684.84" y1="1045.41" x2="4749.64" y2="1045.41" style="stroke:#F0F0F0;stroke-width:9.72"/>
	<line x1="4782.04" y1="1045.41" x2="4846.84" y2="1045.41" style="stroke:#F0F0F0;stroke-width:9.72"/>
	<line x1="4879.24" y1="1045.41" x2="4944.04" y2="1045.41" style="stroke:#F0F0F0;stroke-width:9.72"/>
	<line x1="4976.44" y1="1045.41" x2="5041.24" y2="1045.41" style="stroke:#F0F0F0;stroke-width:9.72"/>
	<line x1="5073.64" y1="1045.41" x2="5138.44" y2="1045.41" style="stroke:#F0F0F0;stroke-width:9.72"/>
	<line x1="5170.84" y1="1045.41" x2="5235.64" y2="1045.41" style="stroke:#F0F0F0;stroke-width:9.72"/>
	<line x1="5268.04" y1="1045.41" x2="5286.60" y2="1045.41" style="stroke:#F0F0F0;stroke-width:9.72"/>
	<line x1="505.24" y1="184.61" x2="570.04" y2="184.61" style="stroke:#F0F0F0;stroke-width:9.72"/>
	<line x1="602.44" y1="184.61" x2="667.24" y2="184.61" style="stroke:#F0F0F0;stroke-width:9.72"/>
	<line x1="699.64" y1="184.61" x2="764.44" y2="184.61" style="stroke:#F0F0F0;stroke-width:9.72"/>
	<line x1="796.84" y1="184.61" x2="861.64" y2="184.61" style="stroke:#F0F0F0;stroke-width:9.72"/>
	<line x1="894.04" y1="184.61" x2="958.84" y2="184.61" style="stroke:#F0F0F0;stroke-width:9.72"/>
	<line x1="991.24" y1="184.61" x2="1056.04" y2="184.61" style="stroke:#F0F0F0;stroke-width:9.72"/>
	<line x1="1088.44" y1="184.61" x2="1153.24" y2="184.61" style="stroke:#F0F0F0;stroke-width:9.72"/>
	<line x1="1185.64" y1="184.61" x2="1250.44" y2="184.61" style="stroke:#F0F0F0;stroke-width:9.72"/>
	<line x1="1282.84" y1="184.61" x2="1347.64" y2="184.61" style="stroke:#F0F0F0;stroke-width:9.72"/>
	<line x1="1380.04" y1="184.61" x2="1444.84" y2="184.61" style="stroke:#F0F0F0;stroke-width:9.72"/>
	<line x1="1477.24" y1="184.61" x2="1542.04" y2="184.61" style="stroke:#F0F0F0;stroke-width:9.72"/>
	<line x1="1574.44" y1="184.61" x2="1639.24" y2="184.61" style="stroke:#F0F0F0;stroke-width:9.72"/>
	<line x1="1671.64" y1="184.61" x2="1736.44" y2="184.61" style="stroke:#F0F0F0;stroke-width:9.72"/>
	<line x1="1768.84" y1="184.61" x2="1833.64" y2="184.61" style="stroke:#F0F0F0;stroke-width:9.72"/>
	<line x1="1866.04" y1="184.61" x2="1930.84" y2="184.61" style="stroke:#F0F0F0;stroke-width:9.72"/>
	<line x1="1963.24" y1="184.61" x2="2028.04" y2="184.61" style="stroke:#F0F0F0;stroke-width:9.72"/>
	<line x1="2060.44" y1="184.61" x2="2125.24" y2="184.61" style="stroke:#F0F0F0;stroke-width:9.72"/>
	<line x1="2157.64" y1="184.61" x2="2222.44" y2="184.61" style="stroke:#F0F0F0;stroke-width:9.72"/>
	<line x1="2254.84" y1="184.61" x2="2319.64" y2="184.61" style="stroke:#F0F0F0;stroke-width:9.72"/>
	<line x1="2352.04" y1="184.61" x2="2416.84" y2="184.61" style="stroke:#F0F0F0;stroke-width:9.72"/>
	<line x1="2449.24" y1="184.61" x2="2514.04" y2="184.61" style="stroke:#F0F0F0;stroke-width:9.72"/>
	<line x1="2546.44" y1="184.61" x2="2611.24" y2="184.61" style="stroke:#F0F0F0;stroke-width:9.72"/>
	<line x1="2643.64" y1="184.61" x2="2708.44" y2="184.61" style="stroke:#F0F0F0;stroke-width:9.72"/>
	<line x1="2740.84" y1="184.61" x2="2805.64" y2="184.61" style="stroke:#F0F0F0;stroke-width:9.72"/>
	<line x1="2838.04" y1="184.61" x2="2902.84" y2="184.61" style="stroke:#F0F0F0;stroke-width:9.72"/>
	<line x1="2935.24" y1="184.61" x2="3000.04" y2="184.61" style="stroke:#F0F0F0;stroke-width:9.72"/>
	<line x1="3032.44" y1="184.61" x2="3097.24" y2="184.61" style="stroke:#F0F0F0;stroke-width:9.72"/>
	<line x1="3129.64" y1="184.61" x2="3194.44" y2="184.61" style="stroke:#F0F0F0;stroke-width:9.72"/>
	<line x1="3226.84" y1="184.61" x2="3291.64" y2="184.61" style="stroke:#F0F0F0;stroke-width:9.72"/>
	<line x1="3324.04" y1="184.61" x2="3388.84" y2="184.61" style="stroke:#F0F0F0;stroke-width:9.72"/>
	<line x1="3421.24" y1="184.61" x2="3486.04" y2="184.61" style="stroke:#F0F0F0;stroke-width:9.72"/>
	<line x1="3518.44" y1="184.61" x2="3583.24" y2="184.61" style="stroke:#F0F0F0;stroke-width:9.72"/>
	<line x1="3615.64" y1="184.61" x2="3680.44" y2="184.61" style="stroke:#F0F0F0;stroke-width:9.72"/>
	<line x1="3712.84" y1="184.61" x2="3777.64" y2="184.61" style="stroke:#F0F0F0;stroke-width:9.72"/>
	<line x1="3810.04" y1="184.61" x2="3874.84" y2="184.61" style="stroke:#F0F0F0;stroke-width:9.72"/>
	<line x1="3907.24" y1="184.61" x2="3972.04" y2="184.61" style="stroke:#F0F0F0;stroke-width:9.72"/>
	<line x1="4004.44" y1="184.61" x2="4069.24" y2="184.61" style="stroke:#F0F0F0;stroke-width:9.72"/>
	<line x1="4101.64" y1="184.61" x2="4166.44" y2="184.61" style="stroke:#F0F0F0;stroke-width:9.72"/>
	<line x1="4198.84" y1="184.61" x2="4263.64" y2="184.61" style="stroke:#F0F0F0;stroke-width:9.72"/>
	<line x1="4296.04" y1="184.61" x2="4360.84" y2="184.61" style="stroke:#F0F0F0;stroke-width:9.72"/>
	<line x1="4393.24" y1="184.61" x2="4458.04" y2="184.61" style="stroke:#F0F0F0;stroke-width:9.72"/>
	<line x1="4490.44" y1="184.61" x2="4555.24" y2="184.61" style="stroke:#F0F0F0;stroke-width:9.72"/>
	<line x1="4587.64" y1="184.61" x2="4652.44" y2="184.61" style="stroke:#F0F0F0;stroke-width:9.72"/>
	<line x1="4684.84" y1="184.61" x2="4749.64" y2="184.61" style="stroke:#F0F0F0;stroke-width:9.72"/>
	<line x1="4782.04" y1="184.61" x2="4846.84" y2="184.61" style="stroke:#F0F0F0;stroke-width:9.72"/>
	<line x1="4879.24" y1="184.61" x2="4944.04" y2="184.61" style="stroke:#F0F0F0;stroke-width:9.72"/>
	<line x1="4976.44" y1="184.61" x2="5041.24" y2="184.61" style="stroke:#F0F0F0;stroke-width:9.72"/>
	<line x1="5073.64" y1="184.61" x2="5138.44" y2="184.61" style="stroke:#F0F0F0;stroke-width:9.72"/>
	<line x1="5170.84" y1="184.61" x2="5235.64" y2="184.61" style="stroke:#F0F0F0;stroke-width:9.72"/>
	<line x1="5268.04" y1="184.61" x2="5286.60" y2="184.61" style="stroke:#F0F0F0;stroke-width:9.72"/>
	<line x1="650.19" y1="2766.66" x2="650.19" y2="2701.86" style="stroke:#F0F0F0;stroke-width:9.72"/>
	<line x1="650.19" y1="2669.46" x2="650.19" y2="2604.66" style="stroke:#F0F0F0;stroke-width:9.72"/>
	<line x1="650.19" y1="2572.26" x2="650.19" y2="2507.46" style="stroke:#F0F0F0;stroke-width:9.72"/>
	<line x1="650.19" y1="2475.06" x2="650.19" y2="2410.26" style="stroke:#F0F0F0;stroke-width:9.72"/>
	<line x1="650.19" y1="2377.86" x2="650.19" y2="2313.06" style="stroke:#F0F0F0;stroke-width:9.72"/>
	<line x1="650.19" y1="2280.66" x2="650.19" y2="2215.86" style="stroke:#F0F0F0;stroke-width:9.72"/>
	<line x1="650.19" y1="2183.46" x2="650.19" y2="2118.66" style="stroke:#F0F0F0;stroke-width:9.72"/>
	<line x1="650.19" y1="2086.26" x2="650.19" y2="2021.46" style="stroke:#F0F0F0;stroke-width:9.72"/>
	<line x1="650.19" y1="1989.06" x2="650.19" y2="1924.26" style="stroke:#F0F0F0;stroke-width:9.72"/>
	<line x1="650.19" y1="1891.86" x2="650.19" y2="1827.06" style="stroke:#F0F0F0;stroke-width:9.72"/>
	<line x1="650.19" y1="1794.66" x2="650.19" y2="1729.86" style="stroke:#F0F0F0;stroke-width:9.72"/>
	<line x1="650.19" y1="1697.46" x2="650.19" y2="1632.66" style="stroke:#F0F0F0;stroke-width:9.72"/>
	<line x1="650.19" y1="1600.26" x2="650.19" y2="1535.46" style="stroke:#F0F0F0;stroke-width:9.72"/>
	<line x1="650.19" y1="1503.06" x2="650.19" y2="1438.26" style="stroke:#F0F0F0;stroke-width:9.72"/>
	<line x1="650.19" y1="1405.86" x2="650.19" y2="1341.06" style="stroke:#F0F0F0;stroke-width:9.72"/>
	<line x1="650.19" y1="1308.66" x2="650.19" y2="1243.86" style="stroke:#F0F0F0;stroke-width:9.72"/>
	<line x1="650.19" y1="1211.46" x2="650.19" y2="1146.66" style="stroke:#F0F0F0;stroke-width:9.72"/>
	<line x1="650.19" y1="1114.26" x2="650.19" y2="1049.46" style="stroke:#F0F0F0;stroke-width:9.72"/>
	<line x1="650.19" y1="1017.06" x2="650.19" y2="952.26" style="stroke:#F0F0F0;stroke-width:9.72"/>
	<line x1="650.19" y1="919.86" x2="650.19" y2="855.06" style="stroke:#F0F0F0;stroke-width:9.72"/>
	<line x1="650.19" y1="822.66" x2="650.19" y2="757.86" style="stroke:#F0F0F0;stroke-width:9.72"/>
	<line x1="650.19" y1="725.46" x2="650.19" y2="660.66" style="stroke:#F0F0F0;stroke-width:9.72"/>
	<line x1="650.19" y1="628.26" x2="650.19" y2="563.46" style="stroke:#F0F0F0;stroke-width:9.72"/>
	<line x1="650.19" y1="531.06" x2="650.19" y2="466.26" style="stroke:#F0F0F0;stroke-width:9.72"/>
	<line x1="650.19" y1="433.86" x2="650.19" y2="369.06" style="stroke:#F0F0F0;stroke-width:9.72"/>
	<line x1="650.19" y1="336.66" x2="650.19" y2="271.86" style="stroke:#F0F0F0;stroke-width:9.72"/>
	<line x1="650.19" y1="239.46" x2="650.19" y2="174.66" style="stroke:#F0F0F0;stroke-width:9.72"/>
	<line x1="650.19" y1="142.26" x2="650.19" y2="113.40" style="stroke:#F0F0F0;stroke-width:9.72"/>
	<line x1="1386.45" y1="2766.66" x2="1386.45" y2="2701.86" style="stroke:#F0F0F0;stroke-width:9.72"/>
	<line x1="1386.45" y1="2669.46" x2="1386.45" y2="2604.66" style="stroke:#F0F0F0;stroke-width:9.72"/>
	<line x1="1386.45" y1="2572.26" x2="1386.45" y2="2507.46" style="stroke:#F0F0F0;stroke-width:9.72"/>
	<line x1="1386.45" y1="2475.06" x2="1386.45" y2="2410.26" style="stroke:#F0F0F0;stroke-width:9.72"/>
	<line x1="1386.45" y1="2377.86" x2="1386.45" y2="2313.06" style="stroke:#F0F0F0;stroke-width:9.72"/>
	<line x1="1386.45" y1="2280.66" x2="1386.45" y2="2215.86" style="stroke:#F0F0F0;stroke-width:9.72"/>
	<line x1="1386.45" y1="2183.46" x2="1386.45" y2="2118.66" style="stroke:#F0F0F0;stroke-width:9.72"/>
	<line x1="1386.45" y1="2086.26" x2="1386.45" y2="2021.46" style="stroke:#F0F0F0;stroke-width:9.72"/>
	<line x1="1386.45" y1="1989.06" x2="1386.45" y2="1924.26" style="stroke:#F0F0F0;stroke-width:9.72"/>
	<line x1="1386.45" y1="1891.86" x2="1386.45" y2="1827.06" style="stroke:#F0F0F0;stroke-width:9.72"/>
	<line x1="1386.45" y1="1794.66" x2="1386.45" y2="1729.86" style="stroke:#F0F0F0;stroke-width:9.72"/>
	<line x1="1386.45" y1="1697.46" x2="1386.45" y2="1632.66" style="stroke:#F0F0F0;stroke-width:9.72"/>
	<line x1="1386.45" y1="1600.26" x2="1386.45" y2="1535.46" style="stroke:#F0F0F0;stroke-width:9.72"/>
	<line x1="1386.45" y1="1503.06" x2="1386.45" y2="1438.26" style="stroke:#F0F0F0;stroke-width:9.72"/>
	<line x1="1386.45" y1="1405.86" x2="1386.45" y2="1341.06" style="stroke:#F0F0F0;stroke-width:9.72"/>
	<line x1="1386.45" y1="1308.66" x2="1386.45" y2="1243.86" style="stroke:#F0F0F0;stroke-width:9.72"/>
	<line x1="1386.45" y1="1211.46" x2="1386.45" y2="1146.66" style="stroke:#F0F0F0;stroke-width:9.72"/>
	<line x1="1386.45" y1="1114.26" x2="1386.45" y2="1049.46" style="stroke:#F0F0F0;stroke-width:9.72"/>
	<line x1="1386.45" y1="1017.06" x2="1386.45" y2="952.26" style="stroke:#F0F0F0;stroke-width:9.72"/>
	<line x1="1386.45" y1="919.86" x2="1386.45" y2="855.06" style="stroke:#F0F0F0;stroke-width:9.72"/>
	<line x1="1386.45" y1="822.66" x2="1386.45" y2="757.86" style="stroke:#F0F0F0;stroke-width:9.72"/>
	<line x1="1386.45" y1="725.46" x2="1386.45" y2="660.66" style="stroke:#F0F0F0;stroke-width:9.72"/>
	<line x1="1386.45" y1="628.26" x2="1386.45" y2="563.46" style="stroke:#F0F0F0;stroke-width:9.72"/>
	<line x1="1386.45" y1="531.06" x2="1386.45" y2="466.26" style="stroke:#F0F0F0;stroke-width:9.72"/>
	<line x1="1386.45" y1="433.86" x2="1386.45" y2="369.06" style="stroke:#F0F0F0;stroke-width:9.72"/>
	<line x1="1386.45" y1="336.66" x2="1386.45" y2="271.86" style="stroke:#F0F0F0;stroke-width:9.72"/>
	<line x1="1386.45" y1="239.46" x2="1386.45" y2="174.66" style="stroke:#F0F0F0;stroke-width:9.72"/>
	<line x1="1386.45" y1="142.26" x2="1386.45" y2="113.40" style="stroke:#F0F0F0;stroke-width:9.72"/>
	<line x1="2122.88" y1="2766.66" x2="2122.88" y2="2701.86" style="stroke:#F0F0F0;stroke-width:9.72"/>
	<line x1="2122.88" y1="2669.46" x2="2122.88" y2="2604.66" style="stroke:#F0F0F0;stroke-width:9.72"/>
	<line x1="2122.88" y1="2572.26" x2="2122.88" y2="2507.46" style="stroke:#F0F0F0;stroke-width:9.72"/>
	<line x1="2122.88" y1="2475.06" x2="2122.88" y2="2410.26" style="stroke:#F0F0F0;stroke-width:9.72"/>
	<line x1="2122.88" y1="2377.86" x2="2122.88" y2="2313.06" style="stroke:#F0F0F0;stroke-width:9.72"/>
	<line x1="2122.88" y1="2280.66" x2="2122.88" y2="2215.86" style="stroke:#F0F0F0;stroke-width:9.72"/>
	<line x1="2122.88" y1="2183.46" x2="2122.88" y2="2118.66" style="stroke:#F0F0F0;stroke-width:9.72"/>
	<line x1="2122.88" y1="2086.26" x2="2122.88" y2="2021.46" style="stroke:#F0F0F0;stroke-width:9.72"/>
	<line x1="2122.88" y1="1989.06" x2="2122.88" y2="1924.26" style="stroke:#F0F0F0;stroke-width:9.72"/>
	<line x1="2122.88" y1="1891.86" x2="2122.88" y2="1827.06" style="stroke:#F0F0F0;stroke-width:9.72"/>
	<line x1="2122.88" y1="1794.66" x2="2122.88" y2="1729.86" style="stroke:#F0F0F0;stroke-width:9.72"/>
	<line x1="2122.88" y1="1697.46" x2="2122.88" y2="1632.66" style="stroke:#F0F0F0;stroke-width:9.72"/>
	<line x1="2122.88" y1="1600.26" x2="2122.88" y2="1535.46" style="stroke:#F0F0F0;stroke-width:9.72"/>
	<line x1="2122.88" y1="1503.06" x2="2122.88" y2="1438.26" style="stroke:#F0F0F0;stroke-width:9.72"/>
	<line x1="2122.88" y1="1405.86" x2="2122.88" y2="1341.06" style="stroke:#F0F0F0;stroke-width:9.72"/>
	<line x1="2122.88" y1="1308.66" x2="2122.88" y2="1243.86" style="stroke:#F0F0F0;stroke-width:9.72"/>
	<line x1="2122.88" y1="1211.46" x2="2122.88" y2="1146.66" style="stroke:#F0F0F0;stroke-width:9.72"/>
	<line x1="2122.88" y1="1114.26" x2="2122.88" y2="1049.46" style="stroke:#F0F0F0;stroke-width:9.72"/>
	<line x1="2122.88" y1="1017.06" x2="2122.88" y2="952.26" style="stroke:#F0F0F0;stroke-width:9.72"/>
	<line x1="2122.88" y1="919.86" x2="2122.88" y2="855.06" style="stroke:#F0F0F0;stroke-width:9.72"/>
	<line x1="2122.88" y1="822.66" x2="2122.88" y2="757.86" style="stroke:#F0F0F0;stroke-width:9.72"/>
	<line x1="2122.88" y1="725.46" x2="2122.88" y2="660.66" style="stroke:#F0F0F0;stroke-width:9.72"/>
	<line x1="2122.88" y1="628.26" x2="2122.88" y2="563.46" style="stroke:#F0F0F0;stroke-width:9.72"/>
	<line x1="2122.88" y1="531.06" x2="2122.88" y2="466.26" style="stroke:#F0F0F0;stroke-width:9.72"/>
	<line x1="2122.88" y1="433.86" x2="2122.88" y2="369.06" style="stroke:#F0F0F0;stroke-width:9.72"/>
	<line x1="2122.88" y1="336.66" x2="2122.88" y2="271.86" style="stroke:#F0F0F0;stroke-width:9.72"/>
	<line x1="2122.88" y1="239.46" x2="2122.88" y2="174.66" style="stroke:#F0F0F0;stroke-width:9.72"/>
	<line x1="2122.88" y1="142.26" x2="2122.88" y2="113.40" style="stroke:#F0F0F0;stroke-width:9.72"/>
	<line x1="2859.13" y1="2766.66" x2="2859.13" y2="2701.86" style="stroke:#F0F0F0;stroke-width:9.72"/>
	<line x1="2859.13" y1="2669.46" x2="2859.13" y2="2604.66" style="stroke:#F0F0F0;stroke-width:9.72"/>
	<line x1="2859.13" y1="2572.26" x2="2859.13" y2="2507.46" style="stroke:#F0F0F0;stroke-width:9.72"/>
	<line x1="2859.13" y1="2475.06" x2="2859.13" y2="2410.26" style="stroke:#F0F0F0;stroke-width:9.72"/>
	<line x1="2859.13" y1="2377.86" x2="2859.13" y2="2313.06" style="stroke:#F0F0F0;stroke-width:9.72"/>
	<line x1="2859.13" y1="2280.66" x2="2859.13" y2="2215.86" style="stroke:#F0F0F0;stroke-width:9.72"/>
	<line x1="2859.13" y1="2183.46" x2="2859.13" y2="2118.66" style="stroke:#F0F0F0;stroke-width:9.72"/>
	<line x1="2859.13" y1="2086.26" x2="2859.13" y2="2021.46" style="stroke:#F0F0F0;stroke-width:9.72"/>
	<line x1="2859.13" y1="1989.06" x2="2859.13" y2="1924.26" style="stroke:#F0F0F0;stroke-width:9.72"/>
	<line x1="2859.13" y1="1891.86" x2="2859.13" y2="1827.06" style="stroke:#F0F0F0;stroke-width:9.72"/>
	<line x1="2859.13" y1="1794.66" x2="2859.13" y2="1729.86" style="stroke:#F0F0F0;stroke-width:9.72"/>
	<line x1="2859.13" y1="1697.46" x2="2859.13" y2="1632.66" style="stroke:#F0F0F0;stroke-width:9.72"/>
	<line x1="2859.13" y1="1600.26" x2="2859.13" y2="1535.46" style="stroke:#F0F0F0;stroke-width:9.72"/>
	<line x1="2859.13" y1="1503.06" x2="2859.13" y2="1438.26" style="stroke:#F0F0F0;stroke-width:9.72"/>
	<line x1="2859.13" y1="1405.86" x2="2859.13" y2="1341.06" style="stroke:#F0F0F0;stroke-width:9.72"/>
	<line x1="2859.13" y1="1308.66" x2="2859.13" y2="1243.86" style="stroke:#F0F0F0;stroke-width:9.72"/>
	<line x1="2859.13" y1="1211.46" x2="2859.13" y2="1146.66" style="stroke:#F0F0F0;stroke-width:9.72"/>
	<line x1="2859.13" y1="1114.26" x2="2859.13" y2="1049.46" style="stroke:#F0F0F0;stroke-width:9.72"/>
	<line x1="2859.13" y1="1017.06" x2="2859.13" y2="952.26" style="stroke:#F0F0F0;stroke-width:9.72"/>
	<line x1="2859.13" y1="919.86" x2="2859.13" y2="855.06" style="stroke:#F0F0F0;stroke-width:9.72"/>
	<line x1="2859.13" y1="822.66" x2="2859.13" y2="757.86" style="stroke:#F0F0F0;stroke-width:9.72"/>
	<line x1="2859.13" y1="725.46" x2="2859.13" y2="660.66" style="stroke:#F0F0F0;stroke-width:9.72"/>
	<line x1="2859.13" y1="628.26" x2="2859.13" y2="563.46" style="stroke:#F0F0F0;stroke-width:9.72"/>
	<line x1="2859.13" y1="531.06" x2="2859.13" y2="466.26" style="stroke:#F0F0F0;stroke-width:9.72"/>
	<line x1="2859.13" y1="433.86" x2="2859.13" y2="369.06" style="stroke:#F0F0F0;stroke-width:9.72"/>
	<line x1="2859.13" y1="336.66" x2="2859.13" y2="271.86" style="stroke:#F0F0F0;stroke-width:9.72"/>
	<line x1="2859.13" y1="239.46" x2="2859.13" y2="174.66" style="stroke:#F0F0F0;stroke-width:9.72"/>
	<line x1="2859.13" y1="142.26" x2="2859.13" y2="113.40" style="stroke:#F0F0F0;stroke-width:9.72"/>
	<line x1="3595.39" y1="2766.66" x2="3595.39" y2="2701.86" style="stroke:#F0F0F0;stroke-width:9.72"/>
	<line x1="3595.39" y1="2669.46" x2="3595.39" y2="2604.66" style="stroke:#F0F0F0;stroke-width:9.72"/>
	<line x1="3595.39" y1="2572.26" x2="3595.39" y2="2507.46" style="stroke:#F0F0F0;stroke-width:9.72"/>
	<line x1="3595.39" y1="2475.06" x2="3595.39" y2="2410.26" style="stroke:#F0F0F0;stroke-width:9.72"/>
	<line x1="3595.39" y1="2377.86" x2="3595.39" y2="2313.06" style="stroke:#F0F0F0;stroke-width:9.72"/>
	<line x1="3595.39" y1="2280.66" x2="3595.39" y2="2215.86" style="stroke:#F0F0F0;stroke-width:9.72"/>
	<line x1="3595.39" y1="2183.46" x2="3595.39" y2="2118.66" style="stroke:#F0F0F0;stroke-width:9.72"/>
	<line x1="3595.39" y1="2086.26" x2="3595.39" y2="2021.46" style="stroke:#F0F0F0;stroke-width:9.72"/>
	<line x1="3595.39" y1="1989.06" x2="3595.39" y2="1924.26" style="stroke:#F0F0F0;stroke-width:9.72"/>
	<line x1="3595.39" y1="1891.86" x2="3595.39" y2="1827.06" style="stroke:#F0F0F0;stroke-width:9.72"/>
	<line x1="3595.39" y1="1794.66" x2="3595.39" y2="1729.86" style="stroke:#F0F0F0;stroke-width:9.72"/>
	<line x1="3595.39" y1="1697.46" x2="3595.39" y2="1632.66" style="stroke:#F0F0F0;stroke-width:9.72"/>
	<line x1="3595.39" y1="1600.26" x2="3595.39" y2="1535.46" style="stroke:#F0F0F0;stroke-width:9.72"/>
	<line x1="3595.39" y1="1503.06" x2="3595.39" y2="1438.26" style="stroke:#F0F0F0;stroke-width:9.72"/>
	<line x1="3595.39" y1="1405.86" x2="3595.39" y2="1341.06" style="stroke:#F0F0F0;stroke-width:9.72"/>
	<line x1="3595.39" y1="1308.66" x2="3595.39" y2="1243.86" style="stroke:#F0F0F0;stroke-width:9.72"/>
	<line x1="3595.39" y1="1211.46" x2="3595.39" y2="1146.66" style="stroke:#F0F0F0;stroke-width:9.72"/>
	<line x1="3595.39" y1="1114.26" x2="3595.39" y2="1049.46" style="stroke:#F0F0F0;stroke-width:9.72"/>
	<line x1="3595.39" y1="1017.06" x2="3595.39" y2="952.26" style="stroke:#F0F0F0;stroke-width:9.72"/>
	<line x1="3595.39" y1="919.86" x2="3595.39" y2="855.06" style="stroke:#F0F0F0;stroke-width:9.72"/>
	<line x1="3595.39" y1="822.66" x2="3595.39" y2="757.86" style="stroke:#F0F0F0;stroke-width:9.72"/>
	<line x1="3595.39" y1="725.46" x2="3595.39" y2="660.66" style="stroke:#F0F0F0;stroke-width:9.72"/>
	<line x1="3595.39" y1="628.26" x2="3595.39" y2="563.46" style="stroke:#F0F0F0;stroke-width:9.72"/>
	<line x1="3595.39" y1="531.06" x2="3595.39" y2="466.26" style="stroke:#F0F0F0;stroke-width:9.72"/>
	<line x1="3595.39" y1="433.86" x2="3595.39" y2="369.06" style="stroke:#F0F0F0;stroke-width:9.72"/>
	<line x1="3595.39" y1="336.66" x2="3595.39" y2="271.86" style="stroke:#F0F0F0;stroke-width:9.72"/>
	<line x1="3595.39" y1="239.46" x2="3595.39" y2="174.66" style="stroke:#F0F0F0;stroke-width:9.72"/>
	<line x1="3595.39" y1="142.26" x2="3595.39" y2="113.40" style="stroke:#F0F0F0;stroke-width:9.72"/>
	<line x1="4331.81" y1="2766.66" x2="4331.81" y2="2701.86" style="stroke:#F0F0F0;stroke-width:9.72"/>
	<line x1="4331.81" y1="2669.46" x2="4331.81" y2="2604.66" style="stroke:#F0F0F0;stroke-width:9.72"/>
	<line x1="4331.81" y1="2572.26" x2="4331.81" y2="2507.46" style="stroke:#F0F0F0;stroke-width:9.72"/>
	<line x1="4331.81" y1="2475.06" x2="4331.81" y2="2410.26" style="stroke:#F0F0F0;stroke-width:9.72"/>
	<line x1="4331.81" y1="2377.86" x2="4331.81" y2="2313.06" style="stroke:#F0F0F0;stroke-width:9.72"/>
	<line x1="4331.81" y1="2280.66" x2="4331.81" y2="2215.86" style="stroke:#F0F0F0;stroke-width:9.72"/>
	<line x1="4331.81" y1="2183.46" x2="4331.81" y2="2118.66" style="stroke:#F0F0F0;stroke-width:9.72"/>
	<line x1="4331.81" y1="2086.26" x2="4331.81" y2="2021.46" style="stroke:#F0F0F0;stroke-width:9.72"/>
	<line x1="4331.81" y1="1989.06" x2="4331.81" y2="1924.26" style="stroke:#F0F0F0;stroke-width:9.72"/>
	<line x1="4331.81" y1="1891.86" x2="4331.81" y2="1827.06" style="stroke:#F0F0F0;stroke-width:9.72"/>
	<line x1="4331.81" y1="1794.66" x2="4331.81" y2="1729.86" style="stroke:#F0F0F0;stroke-width:9.72"/>
	<line x1="4331.81" y1="1697.46" x2="4331.81" y2="1632.66" style="stroke:#F0F0F0;stroke-width:9.72"/>
	<line x1="4331.81" y1="1600.26" x2="4331.81" y2="1535.46" style="stroke:#F0F0F0;stroke-width:9.72"/>
	<line x1="4331.81" y1="1503.06" x2="4331.81" y2="1438.26" style="stroke:#F0F0F0;stroke-width:9.72"/>
	<line x1="4331.81" y1="1405.86" x2="4331.81" y2="1341.06" style="stroke:#F0F0F0;stroke-width:9.72"/>
	<line x1="4331.81" y1="1308.66" x2="4331.81" y2="1243.86" style="stroke:#F0F0F0;stroke-width:9.72"/>
	<line x1="4331.81" y1="1211.46" x2="4331.81" y2="1146.66" style="stroke:#F0F0F0;stroke-width:9.72"/>
	<line x1="4331.81" y1="1114.26" x2="4331.81" y2="1049.46" style="stroke:#F0F0F0;stroke-width:9.72"/>
	<line x1="4331.81" y1="1017.06" x2="4331.81" y2="952.26" style="stroke:#F0F0F0;stroke-width:9.72"/>
	<line x1="4331.81" y1="919.86" x2="4331.81" y2="855.06" style="stroke:#F0F0F0;stroke-width:9.72"/>
	<line x1="4331.81" y1="822.66" x2="4331.81" y2="757.86" style="stroke:#F0F0F0;stroke-width:9.72"/>
	<line x1="4331.81" y1="725.46" x2="4331.81" y2="660.66" style="stroke:#F0F0F0;stroke-width:9.72"/>
	<line x1="4331.81" y1="628.26" x2="4331.81" y2="563.46" style="stroke:#F0F0F0;stroke-width:9.72"/>
	<line x1="4331.81" y1="531.06" x2="4331.81" y2="466.26" style="stroke:#F0F0F0;stroke-width:9.72"/>
	<line x1="4331.81" y1="433.86" x2="4331.81" y2="369.06" style="stroke:#F0F0F0;stroke-width:9.72"/>
	<line x1="4331.81" y1="336.66" x2="4331.81" y2="271.86" style="stroke:#F0F0F0;stroke-width:9.72"/>
	<line x1="4331.81" y1="239.46" x2="4331.81" y2="174.66" style="stroke:#F0F0F0;stroke-width:9.72"/>
	<line x1="4331.81" y1="142.26" x2="4331.81" y2="113.40" style="stroke:#F0F0F0;stroke-width:9.72"/>
	<line x1="5068.07" y1="2766.66" x2="5068.07" y2="2701.86" style="stroke:#F0F0F0;stroke-width:9.72"/>
	<line x1="5068.07" y1="2669.46" x2="5068.07" y2="2604.66" style="stroke:#F0F0F0;stroke-width:9.72"/>
	<line x1="5068.07" y1="2572.26" x2="5068.07" y2="2507.46" style="stroke:#F0F0F0;stroke-width:9.72"/>
	<line x1="5068.07" y1="2475.06" x2="5068.07" y2="2410.26" style="stroke:#F0F0F0;stroke-width:9.72"/>
	<line x1="5068.07" y1="2377.86" x2="5068.07" y2="2313.06" style="stroke:#F0F0F0;stroke-width:9.72"/>
	<line x1="5068.07" y1="2280.66" x2="5068.07" y2="2215.86" style="stroke:#F0F0F0;stroke-width:9.72"/>
	<line x1="5068.07" y1="2183.46" x2="5068.07" y2="2118.66" style="stroke:#F0F0F0;stroke-width:9.72"/>
	<line x1="5068.07" y1="2086.26" x2="5068.07" y2="2021.46" style="stroke:#F0F0F0;stroke-width:9.72"/>
	<line x1="5068.07" y1="1989.06" x2="5068.07" y2="1924.26" style="stroke:#F0F0F0;stroke-width:9.72"/>
	<line x1="5068.07" y1="1891.86" x2="5068.07" y2="1827.06" style="stroke:#F0F0F0;stroke-width:9.72"/>
	<line x1="5068.07" y1="1794.66" x2="5068.07" y2="1729.86" style="stroke:#F0F0F0;stroke-width:9.72"/>
	<line x1="5068.07" y1="1697.46" x2="5068.07" y2="1632.66" style="stroke:#F0F0F0;stroke-width:9.72"/>
	<line x1="5068.07" y1="1600.26" x2="5068.07" y2="1535.46" style="stroke:#F0F0F0;stroke-width:9.72"/>
	<line x1="5068.07" y1="1503.06" x2="5068.07" y2="1438.26" style="stroke:#F0F0F0;stroke-width:9.72"/>
	<line x1="5068.07" y1="1405.86" x2="5068.07" y2="1341.06" style="stroke:#F0F0F0;stroke-width:9.72"/>
	<line x1="5068.07" y1="1308.66" x2="5068.07" y2="1243.86" style="stroke:#F0F0F0;stroke-width:9.72"/>
	<line x1="5068.07" y1="1211.46" x2="5068.07" y2="1146.66" style="stroke:#F0F0F0;stroke-width:9.72"/>
	<line x1="5068.07" y1="1114.26" x2="5068.07" y2="1049.46" style="stroke:#F0F0F0;stroke-width:9.72"/>
	<line x1="5068.07" y1="1017.06" x2="5068.07" y2="952.26" style="stroke:#F0F0F0;stroke-width:9.72"/>
	<line x1="5068.07" y1="919.86" x2="5068.07" y2="855.06" style="stroke:#F0F0F0;stroke-width:9.72"/>
	<line x1="5068.07" y1="822.66" x2="5068.07" y2="757.86" style="stroke:#F0F0F0;stroke-width:9.72"/>
	<line x1="5068.07" y1="725.46" x2="5068.07" y2="660.66" style="stroke:#F0F0F0;stroke-width:9.72"/>
	<line x1="5068.07" y1="628.26" x2="5068.07" y2="563.46" style="stroke:#F0F0F0;stroke-width:9.72"/>
	<line x1="5068.07" y1="531.06" x2="5068.07" y2="466.26" style="stroke:#F0F0F0;stroke-width:9.72"/>
	<line x1="5068.07" y1="433.86" x2="5068.07" y2="369.06" style="stroke:#F0F0F0;stroke-width:9.72"/>
	<line x1="5068.07" y1="336.66" x2="5068.07" y2="271.86" style="stroke:#F0F0F0;stroke-width:9.72"/>
	<line x1="5068.07" y1="239.46" x2="5068.07" y2="174.66" style="stroke:#F0F0F0;stroke-width:9.72"/>
	<line x1="5068.07" y1="142.26" x2="5068.07" y2="113.40" style="stroke:#F0F0F0;stroke-width:9.72"/>
	<rect x="650.19" y="2749.44" width="147.32" height="17.21" style="fill:#3191FF"/>
	<rect x="652.62" y="2751.87" width="142.46" height="12.35" style="fill:none;stroke:#5FAAFF;stroke-width:4.86"/>
	<rect x="797.51" y="2697.81" width="147.15" height="68.85" style="fill:#3191FF"/>
	<rect x="799.94" y="2700.24" width="142.29" height="63.99" style="fill:none;stroke:#5FAAFF;stroke-width:4.86"/>
	<rect x="1091.98" y="2508.47" width="147.32" height="258.19" style="fill:#3191FF"/>
	<rect x="1094.41" y="2510.90" width="142.46" height="253.33" style="fill:none;stroke:#5FAAFF;stroke-width:4.86"/>
	<rect x="1386.45" y="2112.58" width="147.32" height="654.07" style="fill:#3191FF"/>
	<rect x="1388.88" y="2115.01" width="142.46" height="649.21" style="fill:none;stroke:#5FAAFF;stroke-width:4.86"/>
	<rect x="1533.77" y="2697.81" width="147.32" height="68.85" style="fill:#3191FF"/>
	<rect x="1536.20" y="2700.24" width="142.46" height="63.99" style="fill:none;stroke:#5FAAFF;stroke-width:4.86"/>
	<rect x="1681.09" y="1097.04" width="147.15" height="1669.61" style="fill:#3191FF"/>
	<rect x="1683.52" y="1099.47" width="142.29" height="1664.75" style="fill:none;stroke:#5FAAFF;stroke-width:4.86"/>
	<rect x="1828.24" y="2026.52" width="147.32" height="740.14" style="fill:#3191FF"/>
	<rect x="1830.67" y="2028.95" width="142.46" height="735.28" style="fill:none;stroke:#5FAAFF;stroke-width:4.86"/>
	<rect x="1975.56" y="1355.23" width="147.32" height="1411.43" style="fill:#3191FF"/>
	<rect x="1977.99" y="1357.66" width="142.46" height="1406.57" style="fill:none;stroke:#5FAAFF;stroke-width:4.86"/>
	<rect x="2122.88" y="976.56" width="147.15" height="1790.10" style="fill:#3191FF"/>
	<rect x="2125.30" y="978.99" width="142.29" height="1785.24" style="fill:none;stroke:#5FAAFF;stroke-width:4.86"/>
	<rect x="2270.03" y="1682.27" width="147.32" height="1084.39" style="fill:#3191FF"/>
	<rect x="2272.46" y="1684.70" width="142.46" height="1079.53" style="fill:none;stroke:#5FAAFF;stroke-width:4.86"/>
	<rect x="2417.34" y="425.59" width="147.32" height="2341.07" style="fill:#3191FF"/>
	<rect x="2419.77" y="428.02" width="142.46" height="2336.21" style="fill:none;stroke:#5FAAFF;stroke-width:4.86"/>
	<rect x="2564.66" y="2370.77" width="147.15" height="395.89" style="fill:#3191FF"/>
	<rect x="2567.09" y="2373.20" width="142.29" height="391.03" style="fill:none;stroke:#5FAAFF;stroke-width:4.86"/>
	<rect x="2711.81" y="563.29" width="147.32" height="2203.37" style="fill:#3191FF"/>
	<rect x="2714.24" y="565.72" width="142.46" height="2198.51" style="fill:none;stroke:#5FAAFF;stroke-width:4.86"/>
	<rect x="2859.13" y="2353.56" width="147.32" height="413.10" style="fill:#3191FF"/>
	<rect x="2861.56" y="2355.99" width="142.46" height="408.24" style="fill:none;stroke:#5FAAFF;stroke-width:4.86"/>
	<rect x="3006.45" y="1251.96" width="147.15" height="1514.70" style="fill:#3191FF"/>
	<rect x="3008.88" y="1254.39" width="142.29" height="1509.84" style="fill:none;stroke:#5FAAFF;stroke-width:4.86"/>
	<rect x="3153.60" y="2181.43" width="147.32" height="585.22" style="fill:#3191FF"/>
	<rect x="3156.03" y="2183.86" width="142.46" height="580.36" style="fill:none;stroke:#5FAAFF;stroke-width:4.86"/>
	<rect x="3300.92" y="1923.24" width="147.32" height="843.41" style="fill:#3191FF"/>
	<rect x="3303.35" y="1925.67" width="142.46" height="838.55" style="fill:none;stroke:#5FAAFF;stroke-width:4.86"/>
	<rect x="3448.24" y="2594.53" width="147.15" height="172.13" style="fill:#3191FF"/>
	<rect x="3450.67" y="2596.96" width="142.29" height="167.27" style="fill:none;stroke:#5FAAFF;stroke-width:4.86"/>
	<rect x="3595.39" y="2233.07" width="147.32" height="533.59" style="fill:#3191FF"/>
	<rect x="3597.82" y="2235.50" width="142.46" height="528.73" style="fill:none;stroke:#5FAAFF;stroke-width:4.86"/>
	<rect x="3742.71" y="2611.74" width="147.32" height="154.91" style="fill:#3191FF"/>
	<rect x="3745.14" y="2614.17" width="142.46" height="150.05" style="fill:none;stroke:#5FAAFF;stroke-width:4.86"/>
	<rect x="3890.03" y="2680.59" width="147.15" height="86.06" style="fill:#3191FF"/>
	<rect x="3892.46" y="2683.02" width="142.29" height="81.20" style="fill:none;stroke:#5FAAFF;stroke-width:4.86"/>
	<rect x="4037.18" y="2680.59" width="147.32" height="86.06" style="fill:#3191FF"/>
	<rect x="4039.61" y="2683.02" width="142.46" height="81.20" style="fill:none;stroke:#5FAAFF;stroke-width:4.86"/>
	<rect x="4184.49" y="2749.44" width="147.32" height="17.21" style="fill:#3191FF"/>
	<rect x="4186.92" y="2751.87" width="142.46" height="12.35" style="fill:none;stroke:#5FAAFF;stroke-width:4.86"/>
	<rect x="4331.81" y="2732.23" width="147.15" height="34.43" style="fill:#3191FF"/>
	<rect x="4334.24" y="2734.66" width="142.29" height="29.57" style="fill:none;stroke:#5FAAFF;stroke-width:4.86"/>
	<rect x="4626.28" y="2749.44" width="147.32" height="17.21" style="fill:#3191FF"/>
	<rect x="4628.71" y="2751.87" width="142.46" height="12.35" style="fill:none;stroke:#5FAAFF;stroke-width:4.86"/>
	<rect x="4920.75" y="2749.44" width="147.32" height="17.21" style="fill:#3191FF"/>
	<rect x="4923.18" y="2751.87" width="142.46" height="12.35" style="fill:none;stroke:#5FAAFF;stroke-width:4.86"/>
	<rect x="5068.07" y="2732.23" width="147.32" height="34.43" style="fill:#3191FF"/>
	<rect x="5070.50" y="2734.66" width="142.46" height="29.57" style="fill:none;stroke:#5FAAFF;stroke-width:4.86"/>
	<line x1="505.24" y1="2766.66" x2="505.24" y2="113.40" style="stroke:#000000;stroke-width:6.48"/>
	<line x1="505.24" y1="2766.66" x2="460.35" y2="2766.66" style="stroke:#000000;stroke-width:6.48"/>
	<text x="437.74" y="2806.09" style="font-family:'Helvetica';font-size:112.56px;fill:#000000" text-anchor="end">0</text>
	<line x1="505.24" y1="1906.03" x2="460.35" y2="1906.03" style="stroke:#000000;stroke-width:6.48"/>
	<text x="437.74" y="1945.47" style="font-family:'Helvetica';font-size:112.56px;fill:#000000" text-anchor="end">5</text>
	<line x1="505.24" y1="1045.41" x2="460.35" y2="1045.41" style="stroke:#000000;stroke-width:6.48"/>
	<text x="437.74" y="1084.84" style="font-family:'Helvetica';font-size:112.56px;fill:#000000" text-anchor="end">10</text>
	<line x1="505.24" y1="184.61" x2="460.35" y2="184.61" style="stroke:#000000;stroke-width:6.48"/>
	<text x="437.74" y="224.05" style="font-family:'Helvetica';font-size:112.56px;fill:#000000" text-anchor="end">15</text>
	<text x="214.55" y="1439.94" style="font-family:'Helvetica';font-size:112.56px;fill:#000000" transform="rotate(-90 214.55,1439.94)" text-anchor="middle">Percent</text>
	<line x1="505.24" y1="2766.66" x2="5286.60" y2="2766.66" style="stroke:#000000;stroke-width:6.48"/>
	<line x1="650.19" y1="2766.66" x2="650.19" y2="2811.54" style="stroke:#000000;stroke-width:6.48"/>
	<text x="650.19" y="2912.86" style="font-family:'Helvetica';font-size:112.56px;fill:#000000" text-anchor="middle">0</text>
	<line x1="1386.45" y1="2766.66" x2="1386.45" y2="2811.54" style="stroke:#000000;stroke-width:6.48"/>
	<text x="1386.45" y="2912.86" style="font-family:'Helvetica';font-size:112.56px;fill:#000000" text-anchor="middle">.05</text>
	<line x1="2122.88" y1="2766.66" x2="2122.88" y2="2811.54" style="stroke:#000000;stroke-width:6.48"/>
	<text x="2122.88" y="2912.86" style="font-family:'Helvetica';font-size:112.56px;fill:#000000" text-anchor="middle">.1</text>
	<line x1="2859.13" y1="2766.66" x2="2859.13" y2="2811.54" style="stroke:#000000;stroke-width:6.48"/>
	<text x="2859.13" y="2912.86" style="font-family:'Helvetica';font-size:112.56px;fill:#000000" text-anchor="middle">.15</text>
	<line x1="3595.39" y1="2766.66" x2="3595.39" y2="2811.54" style="stroke:#000000;stroke-width:6.48"/>
	<text x="3595.39" y="2912.86" style="font-family:'Helvetica';font-size:112.56px;fill:#000000" text-anchor="middle">.2</text>
	<line x1="4331.81" y1="2766.66" x2="4331.81" y2="2811.54" style="stroke:#000000;stroke-width:6.48"/>
	<text x="4331.81" y="2912.86" style="font-family:'Helvetica';font-size:112.56px;fill:#000000" text-anchor="middle">.25</text>
	<line x1="5068.07" y1="2766.66" x2="5068.07" y2="2811.54" style="stroke:#000000;stroke-width:6.48"/>
	<text x="5068.07" y="2912.86" style="font-family:'Helvetica';font-size:112.56px;fill:#000000" text-anchor="middle">.3</text>
	<text x="2895.92" y="3070.31" style="font-family:'Helvetica';font-size:112.56px;fill:#000000" text-anchor="middle">% red</text>
</svg>
