<?xml version="1.0" encoding="UTF-8" standalone="no"?>
<!-- This is a Stata 18.5 generated SVG file (http://www.stata.com) -->

<svg version="1.1" width="7.500in" height="4.500in" viewBox="0 0 5400 3240" xmlns="http://www.w3.org/2000/svg" xmlns:xlink="http://www.w3.org/1999/xlink">
	<desc>Stata Graph - Graph</desc>
	<rect x="0" y="0" width="5400" height="3240" style="fill:#FFFFFF;stroke:none"/>
	<rect x="0.00" y="0.00" width="5400.00" height="3240.00" style="fill:#FFFFFF"/>
	<rect x="3.24" y="3.24" width="5393.52" height="3233.52" style="fill:none;stroke:#FFFFFF;stroke-width:6.48"/>
	<rect x="505.24" y="113.40" width="4781.36" height="2653.26" style="fill:#FFFFFF"/>
	<rect x="508.48" y="116.64" width="4774.88" height="2646.78" style="fill:none;stroke:#FFFFFF;stroke-width:6.48"/>
	<line x1="505.24" y1="2766.66" x2="570.04" y2="2766.66" style="stroke:#F0F0F0;stroke-width:9.72"/>
	<line x1="602.44" y1="2766.66" x2="667.24" y2="2766.66" style="stroke:#F0F0F0;stroke-width:9.72"/>
	<line x1="699.64" y1="2766.66" x2="764.44" y2="2766.66" style="stroke:#F0F0F0;stroke-width:9.72"/>
	<line x1="796.84" y1="2766.66" x2="861.64" y2="2766.66" style="stroke:#F0F0F0;stroke-width:9.72"/>
	<line x1="894.04" y1="2766.66" x2="958.84" y2="2766.66" style="stroke:#F0F0F0;stroke-width:9.72"/>
	<line x1="991.24" y1="2766.66" x2="1056.04" y2="2766.66" style="stroke:#F0F0F0;stroke-width:9.72"/>
	<line x1="1088.44" y1="2766.66" x2="1153.24" y2="2766.66" style="stroke:#F0F0F0;stroke-width:9.72"/>
	<line x1="1185.64" y1="2766.66" x2="1250.44" y2="2766.66" style="stroke:#F0F0F0;stroke-width:9.72"/>
	<line x1="1282.84" y1="2766.66" x2="1347.64" y2="2766.66" style="stroke:#F0F0F0;stroke-width:9.72"/>
	<line x1="1380.04" y1="2766.66" x2="1444.84" y2="2766.66" style="stroke:#F0F0F0;stroke-width:9.72"/>
	<line x1="1477.24" y1="2766.66" x2="1542.04" y2="2766.66" style="stroke:#F0F0F0;stroke-width:9.72"/>
	<line x1="1574.44" y1="2766.66" x2="1639.24" y2="2766.66" style="stroke:#F0F0F0;stroke-width:9.72"/>
	<line x1="1671.64" y1="2766.66" x2="1736.44" y2="2766.66" style="stroke:#F0F0F0;stroke-width:9.72"/>
	<line x1="1768.84" y1="2766.66" x2="1833.64" y2="2766.66" style="stroke:#F0F0F0;stroke-width:9.72"/>
	<line x1="1866.04" y1="2766.66" x2="1930.84" y2="2766.66" style="stroke:#F0F0F0;stroke-width:9.72"/>
	<line x1="1963.24" y1="2766.66" x2="2028.04" y2="2766.66" style="stroke:#F0F0F0;stroke-width:9.72"/>
	<line x1="2060.44" y1="2766.66" x2="2125.24" y2="2766.66" style="stroke:#F0F0F0;stroke-width:9.72"/>
	<line x1="2157.64" y1="2766.66" x2="2222.44" y2="2766.66" style="stroke:#F0F0F0;stroke-width:9.72"/>
	<line x1="2254.84" y1="2766.66" x2="2319.64" y2="2766.66" style="stroke:#F0F0F0;stroke-width:9.72"/>
	<line x1="2352.04" y1="2766.66" x2="2416.84" y2="2766.66" style="stroke:#F0F0F0;stroke-width:9.72"/>
	<line x1="2449.24" y1="2766.66" x2="2514.04" y2="2766.66" style="stroke:#F0F0F0;stroke-width:9.72"/>
	<line x1="2546.44" y1="2766.66" x2="2611.24" y2="2766.66" style="stroke:#F0F0F0;stroke-width:9.72"/>
	<line x1="2643.64" y1="2766.66" x2="2708.44" y2="2766.66" style="stroke:#F0F0F0;stroke-width:9.72"/>
	<line x1="2740.84" y1="2766.66" x2="2805.64" y2="2766.66" style="stroke:#F0F0F0;stroke-width:9.72"/>
	<line x1="2838.04" y1="2766.66" x2="2902.84" y2="2766.66" style="stroke:#F0F0F0;stroke-width:9.72"/>
	<line x1="2935.24" y1="2766.66" x2="3000.04" y2="2766.66" style="stroke:#F0F0F0;stroke-width:9.72"/>
	<line x1="3032.44" y1="2766.66" x2="3097.24" y2="2766.66" style="stroke:#F0F0F0;stroke-width:9.72"/>
	<line x1="3129.64" y1="2766.66" x2="3194.44" y2="2766.66" style="stroke:#F0F0F0;stroke-width:9.72"/>
	<line x1="3226.84" y1="2766.66" x2="3291.64" y2="2766.66" style="stroke:#F0F0F0;stroke-width:9.72"/>
	<line x1="3324.04" y1="2766.66" x2="3388.84" y2="2766.66" style="stroke:#F0F0F0;stroke-width:9.72"/>
	<line x1="3421.24" y1="2766.66" x2="3486.04" y2="2766.66" style="stroke:#F0F0F0;stroke-width:9.72"/>
	<line x1="3518.44" y1="2766.66" x2="3583.24" y2="2766.66" style="stroke:#F0F0F0;stroke-width:9.72"/>
	<line x1="3615.64" y1="2766.66" x2="3680.44" y2="2766.66" style="stroke:#F0F0F0;stroke-width:9.72"/>
	<line x1="3712.84" y1="2766.66" x2="3777.64" y2="2766.66" style="stroke:#F0F0F0;stroke-width:9.72"/>
	<line x1="3810.04" y1="2766.66" x2="3874.84" y2="2766.66" style="stroke:#F0F0F0;stroke-width:9.72"/>
	<line x1="3907.24" y1="2766.66" x2="3972.04" y2="2766.66" style="stroke:#F0F0F0;stroke-width:9.72"/>
	<line x1="4004.44" y1="2766.66" x2="4069.24" y2="2766.66" style="stroke:#F0F0F0;stroke-width:9.72"/>
	<line x1="4101.64" y1="2766.66" x2="4166.44" y2="2766.66" style="stroke:#F0F0F0;stroke-width:9.72"/>
	<line x1="4198.84" y1="2766.66" x2="4263.64" y2="2766.66" style="stroke:#F0F0F0;stroke-width:9.72"/>
	<line x1="4296.04" y1="2766.66" x2="4360.84" y2="2766.66" style="stroke:#F0F0F0;stroke-width:9.72"/>
	<line x1="4393.24" y1="2766.66" x2="4458.04" y2="2766.66" style="stroke:#F0F0F0;stroke-width:9.72"/>
	<line x1="4490.44" y1="2766.66" x2="4555.24" y2="2766.66" style="stroke:#F0F0F0;stroke-width:9.72"/>
	<line x1="4587.64" y1="2766.66" x2="4652.44" y2="2766.66" style="stroke:#F0F0F0;stroke-width:9.72"/>
	<line x1="4684.84" y1="2766.66" x2="4749.64" y2="2766.66" style="stroke:#F0F0F0;stroke-width:9.72"/>
	<line x1="4782.04" y1="2766.66" x2="4846.84" y2="2766.66" style="stroke:#F0F0F0;stroke-width:9.72"/>
	<line x1="4879.24" y1="2766.66" x2="4944.04" y2="2766.66" style="stroke:#F0F0F0;stroke-width:9.72"/>
	<line x1="4976.44" y1="2766.66" x2="5041.24" y2="2766.66" style="stroke:#F0F0F0;stroke-width:9.72"/>
	<line x1="5073.64" y1="2766.66" x2="5138.44" y2="2766.66" style="stroke:#F0F0F0;stroke-width:9.72"/>
	<line x1="5170.84" y1="2766.66" x2="5235.64" y2="2766.66" style="stroke:#F0F0F0;stroke-width:9.72"/>
	<line x1="5268.04" y1="2766.66" x2="5286.60" y2="2766.66" style="stroke:#F0F0F0;stroke-width:9.72"/>
	<line x1="505.24" y1="1906.03" x2="570.04" y2="1906.03" style="stroke:#F0F0F0;stroke-width:9.72"/>
	<line x1="602.44" y1="1906.03" x2="667.24" y2="1906.03" style="stroke:#F0F0F0;stroke-width:9.72"/>
	<line x1="699.64" y1="1906.03" x2="764.44" y2="1906.03" style="stroke:#F0F0F0;stroke-width:9.72"/>
	<line x1="796.84" y1="1906.03" x2="861.64" y2="1906.03" style="stroke:#F0F0F0;stroke-width:9.72"/>
	<line x1="894.04" y1="1906.03" x2="958.84" y2="1906.03" style="stroke:#F0F0F0;stroke-width:9.72"/>
	<line x1="991.24" y1="1906.03" x2="1056.04" y2="1906.03" style="stroke:#F0F0F0;stroke-width:9.72"/>
	<line x1="1088.44" y1="1906.03" x2="1153.24" y2="1906.03" style="stroke:#F0F0F0;stroke-width:9.72"/>
	<line x1="1185.64" y1="1906.03" x2="1250.44" y2="1906.03" style="stroke:#F0F0F0;stroke-width:9.72"/>
	<line x1="1282.84" y1="1906.03" x2="1347.64" y2="1906.03" style="stroke:#F0F0F0;stroke-width:9.72"/>
	<line x1="1380.04" y1="1906.03" x2="1444.84" y2="1906.03" style="stroke:#F0F0F0;stroke-width:9.72"/>
	<line x1="1477.24" y1="1906.03" x2="1542.04" y2="1906.03" style="stroke:#F0F0F0;stroke-width:9.72"/>
	<line x1="1574.44" y1="1906.03" x2="1639.24" y2="1906.03" style="stroke:#F0F0F0;stroke-width:9.72"/>
	<line x1="1671.64" y1="1906.03" x2="1736.44" y2="1906.03" style="stroke:#F0F0F0;stroke-width:9.72"/>
	<line x1="1768.84" y1="1906.03" x2="1833.64" y2="1906.03" style="stroke:#F0F0F0;stroke-width:9.72"/>
	<line x1="1866.04" y1="1906.03" x2="1930.84" y2="1906.03" style="stroke:#F0F0F0;stroke-width:9.72"/>
	<line x1="1963.24" y1="1906.03" x2="2028.04" y2="1906.03" style="stroke:#F0F0F0;stroke-width:9.72"/>
	<line x1="2060.44" y1="1906.03" x2="2125.24" y2="1906.03" style="stroke:#F0F0F0;stroke-width:9.72"/>
	<line x1="2157.64" y1="1906.03" x2="2222.44" y2="1906.03" style="stroke:#F0F0F0;stroke-width:9.72"/>
	<line x1="2254.84" y1="1906.03" x2="2319.64" y2="1906.03" style="stroke:#F0F0F0;stroke-width:9.72"/>
	<line x1="2352.04" y1="1906.03" x2="2416.84" y2="1906.03" style="stroke:#F0F0F0;stroke-width:9.72"/>
	<line x1="2449.24" y1="1906.03" x2="2514.04" y2="1906.03" style="stroke:#F0F0F0;stroke-width:9.72"/>
	<line x1="2546.44" y1="1906.03" x2="2611.24" y2="1906.03" style="stroke:#F0F0F0;stroke-width:9.72"/>
	<line x1="2643.64" y1="1906.03" x2="2708.44" y2="1906.03" style="stroke:#F0F0F0;stroke-width:9.72"/>
	<line x1="2740.84" y1="1906.03" x2="2805.64" y2="1906.03" style="stroke:#F0F0F0;stroke-width:9.72"/>
	<line x1="2838.04" y1="1906.03" x2="2902.84" y2="1906.03" style="stroke:#F0F0F0;stroke-width:9.72"/>
	<line x1="2935.24" y1="1906.03" x2="3000.04" y2="1906.03" style="stroke:#F0F0F0;stroke-width:9.72"/>
	<line x1="3032.44" y1="1906.03" x2="3097.24" y2="1906.03" style="stroke:#F0F0F0;stroke-width:9.72"/>
	<line x1="3129.64" y1="1906.03" x2="3194.44" y2="1906.03" style="stroke:#F0F0F0;stroke-width:9.72"/>
	<line x1="3226.84" y1="1906.03" x2="3291.64" y2="1906.03" style="stroke:#F0F0F0;stroke-width:9.72"/>
	<line x1="3324.04" y1="1906.03" x2="3388.84" y2="1906.03" style="stroke:#F0F0F0;stroke-width:9.72"/>
	<line x1="3421.24" y1="1906.03" x2="3486.04" y2="1906.03" style="stroke:#F0F0F0;stroke-width:9.72"/>
	<line x1="3518.44" y1="1906.03" x2="3583.24" y2="1906.03" style="stroke:#F0F0F0;stroke-width:9.72"/>
	<line x1="3615.64" y1="1906.03" x2="3680.44" y2="1906.03" style="stroke:#F0F0F0;stroke-width:9.72"/>
	<line x1="3712.84" y1="1906.03" x2="3777.64" y2="1906.03" style="stroke:#F0F0F0;stroke-width:9.72"/>
	<line x1="3810.04" y1="1906.03" x2="3874.84" y2="1906.03" style="stroke:#F0F0F0;stroke-width:9.72"/>
	<line x1="3907.24" y1="1906.03" x2="3972.04" y2="1906.03" style="stroke:#F0F0F0;stroke-width:9.72"/>
	<line x1="4004.44" y1="1906.03" x2="4069.24" y2="1906.03" style="stroke:#F0F0F0;stroke-width:9.72"/>
	<line x1="4101.64" y1="1906.03" x2="4166.44" y2="1906.03" style="stroke:#F0F0F0;stroke-width:9.72"/>
	<line x1="4198.84" y1="1906.03" x2="4263.64" y2="1906.03" style="stroke:#F0F0F0;stroke-width:9.72"/>
	<line x1="4296.04" y1="1906.03" x2="4360.84" y2="1906.03" style="stroke:#F0F0F0;stroke-width:9.72"/>
	<line x1="4393.24" y1="1906.03" x2="4458.04" y2="1906.03" style="stroke:#F0F0F0;stroke-width:9.72"/>
	<line x1="4490.44" y1="1906.03" x2="4555.24" y2="1906.03" style="stroke:#F0F0F0;stroke-width:9.72"/>
	<line x1="4587.64" y1="1906.03" x2="4652.44" y2="1906.03" style="stroke:#F0F0F0;stroke-width:9.72"/>
	<line x1="4684.84" y1="1906.03" x2="4749.64" y2="1906.03" style="stroke:#F0F0F0;stroke-width:9.72"/>
	<line x1="4782.04" y1="1906.03" x2="4846.84" y2="1906.03" style="stroke:#F0F0F0;stroke-width:9.72"/>
	<line x1="4879.24" y1="1906.03" x2="4944.04" y2="1906.03" style="stroke:#F0F0F0;stroke-width:9.72"/>
	<line x1="4976.44" y1="1906.03" x2="5041.24" y2="1906.03" style="stroke:#F0F0F0;stroke-width:9.72"/>
	<line x1="5073.64" y1="1906.03" x2="5138.44" y2="1906.03" style="stroke:#F0F0F0;stroke-width:9.72"/>
	<line x1="5170.84" y1="1906.03" x2="5235.64" y2="1906.03" style="stroke:#F0F0F0;stroke-width:9.72"/>
	<line x1="5268.04" y1="1906.03" x2="5286.60" y2="1906.03" style="stroke:#F0F0F0;stroke-width:9.72"/>
	<line x1="505.24" y1="1045.41" x2="570.04" y2="1045.41" style="stroke:#F0F0F0;stroke-width:9.72"/>
	<line x1="602.44" y1="1045.41" x2="667.24" y2="1045.41" style="stroke:#F0F0F0;stroke-width:9.72"/>
	<line x1="699.64" y1="1045.41" x2="764.44" y2="1045.41" style="stroke:#F0F0F0;stroke-width:9.72"/>
	<line x1="796.84" y1="1045.41" x2="861.64" y2="1045.41" style="stroke:#F0F0F0;stroke-width:9.72"/>
	<line x1="894.04" y1="1045.41" x2="958.84" y2="1045.41" style="stroke:#F0F0F0;stroke-width:9.72"/>
	<line x1="991.24" y1="1045.41" x2="1056.04" y2="1045.41" style="stroke:#F0F0F0;stroke-width:9.72"/>
	<line x1="1088.44" y1="1045.41" x2="1153.24" y2="1045.41" style="stroke:#F0F0F0;stroke-width:9.72"/>
	<line x1="1185.64" y1="1045.41" x2="1250.44" y2="1045.41" style="stroke:#F0F0F0;stroke-width:9.72"/>
	<line x1="1282.84" y1="1045.41" x2="1347.64" y2="1045.41" style="stroke:#F0F0F0;stroke-width:9.72"/>
	<line x1="1380.04" y1="1045.41" x2="1444.84" y2="1045.41" style="stroke:#F0F0F0;stroke-width:9.72"/>
	<line x1="1477.24" y1="1045.41" x2="1542.04" y2="1045.41" style="stroke:#F0F0F0;stroke-width:9.72"/>
	<line x1="1574.44" y1="1045.41" x2="1639.24" y2="1045.41" style="stroke:#F0F0F0;stroke-width:9.72"/>
	<line x1="1671.64" y1="1045.41" x2="1736.44" y2="1045.41" style="stroke:#F0F0F0;stroke-width:9.72"/>
	<line x1="1768.84" y1="1045.41" x2="1833.64" y2="1045.41" style="stroke:#F0F0F0;stroke-width:9.72"/>
	<line x1="1866.04" y1="1045.41" x2="1930.84" y2="1045.41" style="stroke:#F0F0F0;stroke-width:9.72"/>
	<line x1="1963.24" y1="1045.41" x2="2028.04" y2="1045.41" style="stroke:#F0F0F0;stroke-width:9.72"/>
	<line x1="2060.44" y1="1045.41" x2="2125.24" y2="1045.41" style="stroke:#F0F0F0;stroke-width:9.72"/>
	<line x1="2157.64" y1="1045.41" x2="2222.44" y2="1045.41" style="stroke:#F0F0F0;stroke-width:9.72"/>
	<line x1="2254.84" y1="1045.41" x2="2319.64" y2="1045.41" style="stroke:#F0F0F0;stroke-width:9.72"/>
	<line x1="2352.04" y1="1045.41" x2="2416.84" y2="1045.41" style="stroke:#F0F0F0;stroke-width:9.72"/>
	<line x1="2449.24" y1="1045.41" x2="2514.04" y2="1045.41" style="stroke:#F0F0F0;stroke-width:9.72"/>
	<line x1="2546.44" y1="1045.41" x2="2611.24" y2="1045.41" style="stroke:#F0F0F0;stroke-width:9.72"/>
	<line x1="2643.64" y1="1045.41" x2="2708.44" y2="1045.41" style="stroke:#F0F0F0;stroke-width:9.72"/>
	<line x1="2740.84" y1="1045.41" x2="2805.64" y2="1045.41" style="stroke:#F0F0F0;stroke-width:9.72"/>
	<line x1="2838.04" y1="1045.41" x2="2902.84" y2="1045.41" style="stroke:#F0F0F0;stroke-width:9.72"/>
	<line x1="2935.24" y1="1045.41" x2="3000.04" y2="1045.41" style="stroke:#F0F0F0;stroke-width:9.72"/>
	<line x1="3032.44" y1="1045.41" x2="3097.24" y2="1045.41" style="stroke:#F0F0F0;stroke-width:9.72"/>
	<line x1="3129.64" y1="1045.41" x2="3194.44" y2="1045.41" style="stroke:#F0F0F0;stroke-width:9.72"/>
	<line x1="3226.84" y1="1045.41" x2="3291.64" y2="1045.41" style="stroke:#F0F0F0;stroke-width:9.72"/>
	<line x1="3324.04" y1="1045.41" x2="3388.84" y2="1045.41" style="stroke:#F0F0F0;stroke-width:9.72"/>
	<line x1="3421.24" y1="1045.41" x2="3486.04" y2="1045.41" style="stroke:#F0F0F0;stroke-width:9.72"/>
	<line x1="3518.44" y1="1045.41" x2="3583.24" y2="1045.41" style="stroke:#F0F0F0;stroke-width:9.72"/>
	<line x1="3615.64" y1="1045.41" x2="3680.44" y2="1045.41" style="stroke:#F0F0F0;stroke-width:9.72"/>
	<line x1="3712.84" y1="1045.41" x2="3777.64" y2="1045.41" style="stroke:#F0F0F0;stroke-width:9.72"/>
	<line x1="3810.04" y1="1045.41" x2="3874.84" y2="1045.41" style="stroke:#F0F0F0;stroke-width:9.72"/>
	<line x1="3907.24" y1="1045.41" x2="3972.04" y2="1045.41" style="stroke:#F0F0F0;stroke-width:9.72"/>
	<line x1="4004.44" y1="1045.41" x2="4069.24" y2="1045.41" style="stroke:#F0F0F0;stroke-width:9.72"/>
	<line x1="4101.64" y1="1045.41" x2="4166.44" y2="1045.41" style="stroke:#F0F0F0;stroke-width:9.72"/>
	<line x1="4198.84" y1="1045.41" x2="4263.64" y2="1045.41" style="stroke:#F0F0F0;stroke-width:9.72"/>
	<line x1="4296.04" y1="1045.41" x2="4360.84" y2="1045.41" style="stroke:#F0F0F0;stroke-width:9.72"/>
	<line x1="4393.24" y1="1045.41" x2="4458.04" y2="1045.41" style="stroke:#F0F0F0;stroke-width:9.72"/>
	<line x1="4490.44" y1="1045.41" x2="4555.24" y2="1045.41" style="stroke:#F0F0F0;stroke-width:9.72"/>
	<line x1="4587.64" y1="1045.41" x2="4652.44" y2="1045.41" style="stroke:#F0F0F0;stroke-width:9.72"/>
	<line x1="4684.84" y1="1045.41" x2="4749.64" y2="1045.41" style="stroke:#F0F0F0;stroke-width:9.72"/>
	<line x1="4782.04" y1="1045.41" x2="4846.84" y2="1045.41" style="stroke:#F0F0F0;stroke-width:9.72"/>
	<line x1="4879.24" y1="1045.41" x2="4944.04" y2="1045.41" style="stroke:#F0F0F0;stroke-width:9.72"/>
	<line x1="4976.44" y1="1045.41" x2="5041.24" y2="1045.41" style="stroke:#F0F0F0;stroke-width:9.72"/>
	<line x1="5073.64" y1="1045.41" x2="5138.44" y2="1045.41" style="stroke:#F0F0F0;stroke-width:9.72"/>
	<line x1="5170.84" y1="1045.41" x2="5235.64" y2="1045.41" style="stroke:#F0F0F0;stroke-width:9.72"/>
	<line x1="5268.04" y1="1045.41" x2="5286.60" y2="1045.41" style="stroke:#F0F0F0;stroke-width:9.72"/>
	<line x1="505.24" y1="184.61" x2="570.04" y2="184.61" style="stroke:#F0F0F0;stroke-width:9.72"/>
	<line x1="602.44" y1="184.61" x2="667.24" y2="184.61" style="stroke:#F0F0F0;stroke-width:9.72"/>
	<line x1="699.64" y1="184.61" x2="764.44" y2="184.61" style="stroke:#F0F0F0;stroke-width:9.72"/>
	<line x1="796.84" y1="184.61" x2="861.64" y2="184.61" style="stroke:#F0F0F0;stroke-width:9.72"/>
	<line x1="894.04" y1="184.61" x2="958.84" y2="184.61" style="stroke:#F0F0F0;stroke-width:9.72"/>
	<line x1="991.24" y1="184.61" x2="1056.04" y2="184.61" style="stroke:#F0F0F0;stroke-width:9.72"/>
	<line x1="1088.44" y1="184.61" x2="1153.24" y2="184.61" style="stroke:#F0F0F0;stroke-width:9.72"/>
	<line x1="1185.64" y1="184.61" x2="1250.44" y2="184.61" style="stroke:#F0F0F0;stroke-width:9.72"/>
	<line x1="1282.84" y1="184.61" x2="1347.64" y2="184.61" style="stroke:#F0F0F0;stroke-width:9.72"/>
	<line x1="1380.04" y1="184.61" x2="1444.84" y2="184.61" style="stroke:#F0F0F0;stroke-width:9.72"/>
	<line x1="1477.24" y1="184.61" x2="1542.04" y2="184.61" style="stroke:#F0F0F0;stroke-width:9.72"/>
	<line x1="1574.44" y1="184.61" x2="1639.24" y2="184.61" style="stroke:#F0F0F0;stroke-width:9.72"/>
	<line x1="1671.64" y1="184.61" x2="1736.44" y2="184.61" style="stroke:#F0F0F0;stroke-width:9.72"/>
	<line x1="1768.84" y1="184.61" x2="1833.64" y2="184.61" style="stroke:#F0F0F0;stroke-width:9.72"/>
	<line x1="1866.04" y1="184.61" x2="1930.84" y2="184.61" style="stroke:#F0F0F0;stroke-width:9.72"/>
	<line x1="1963.24" y1="184.61" x2="2028.04" y2="184.61" style="stroke:#F0F0F0;stroke-width:9.72"/>
	<line x1="2060.44" y1="184.61" x2="2125.24" y2="184.61" style="stroke:#F0F0F0;stroke-width:9.72"/>
	<line x1="2157.64" y1="184.61" x2="2222.44" y2="184.61" style="stroke:#F0F0F0;stroke-width:9.72"/>
	<line x1="2254.84" y1="184.61" x2="2319.64" y2="184.61" style="stroke:#F0F0F0;stroke-width:9.72"/>
	<line x1="2352.04" y1="184.61" x2="2416.84" y2="184.61" style="stroke:#F0F0F0;stroke-width:9.72"/>
	<line x1="2449.24" y1="184.61" x2="2514.04" y2="184.61" style="stroke:#F0F0F0;stroke-width:9.72"/>
	<line x1="2546.44" y1="184.61" x2="2611.24" y2="184.61" style="stroke:#F0F0F0;stroke-width:9.72"/>
	<line x1="2643.64" y1="184.61" x2="2708.44" y2="184.61" style="stroke:#F0F0F0;stroke-width:9.72"/>
	<line x1="2740.84" y1="184.61" x2="2805.64" y2="184.61" style="stroke:#F0F0F0;stroke-width:9.72"/>
	<line x1="2838.04" y1="184.61" x2="2902.84" y2="184.61" style="stroke:#F0F0F0;stroke-width:9.72"/>
	<line x1="2935.24" y1="184.61" x2="3000.04" y2="184.61" style="stroke:#F0F0F0;stroke-width:9.72"/>
	<line x1="3032.44" y1="184.61" x2="3097.24" y2="184.61" style="stroke:#F0F0F0;stroke-width:9.72"/>
	<line x1="3129.64" y1="184.61" x2="3194.44" y2="184.61" style="stroke:#F0F0F0;stroke-width:9.72"/>
	<line x1="3226.84" y1="184.61" x2="3291.64" y2="184.61" style="stroke:#F0F0F0;stroke-width:9.72"/>
	<line x1="3324.04" y1="184.61" x2="3388.84" y2="184.61" style="stroke:#F0F0F0;stroke-width:9.72"/>
	<line x1="3421.24" y1="184.61" x2="3486.04" y2="184.61" style="stroke:#F0F0F0;stroke-width:9.72"/>
	<line x1="3518.44" y1="184.61" x2="3583.24" y2="184.61" style="stroke:#F0F0F0;stroke-width:9.72"/>
	<line x1="3615.64" y1="184.61" x2="3680.44" y2="184.61" style="stroke:#F0F0F0;stroke-width:9.72"/>
	<line x1="3712.84" y1="184.61" x2="3777.64" y2="184.61" style="stroke:#F0F0F0;stroke-width:9.72"/>
	<line x1="3810.04" y1="184.61" x2="3874.84" y2="184.61" style="stroke:#F0F0F0;stroke-width:9.72"/>
	<line x1="3907.24" y1="184.61" x2="3972.04" y2="184.61" style="stroke:#F0F0F0;stroke-width:9.72"/>
	<line x1="4004.44" y1="184.61" x2="4069.24" y2="184.61" style="stroke:#F0F0F0;stroke-width:9.72"/>
	<line x1="4101.64" y1="184.61" x2="4166.44" y2="184.61" style="stroke:#F0F0F0;stroke-width:9.72"/>
	<line x1="4198.84" y1="184.61" x2="4263.64" y2="184.61" style="stroke:#F0F0F0;stroke-width:9.72"/>
	<line x1="4296.04" y1="184.61" x2="4360.84" y2="184.61" style="stroke:#F0F0F0;stroke-width:9.72"/>
	<line x1="4393.24" y1="184.61" x2="4458.04" y2="184.61" style="stroke:#F0F0F0;stroke-width:9.72"/>
	<line x1="4490.44" y1="184.61" x2="4555.24" y2="184.61" style="stroke:#F0F0F0;stroke-width:9.72"/>
	<line x1="4587.64" y1="184.61" x2="4652.44" y2="184.61" style="stroke:#F0F0F0;stroke-width:9.72"/>
	<line x1="4684.84" y1="184.61" x2="4749.64" y2="184.61" style="stroke:#F0F0F0;stroke-width:9.72"/>
	<line x1="4782.04" y1="184.61" x2="4846.84" y2="184.61" style="stroke:#F0F0F0;stroke-width:9.72"/>
	<line x1="4879.24" y1="184.61" x2="4944.04" y2="184.61" style="stroke:#F0F0F0;stroke-width:9.72"/>
	<line x1="4976.44" y1="184.61" x2="5041.24" y2="184.61" style="stroke:#F0F0F0;stroke-width:9.72"/>
	<line x1="5073.64" y1="184.61" x2="5138.44" y2="184.61" style="stroke:#F0F0F0;stroke-width:9.72"/>
	<line x1="5170.84" y1="184.61" x2="5235.64" y2="184.61" style="stroke:#F0F0F0;stroke-width:9.72"/>
	<line x1="5268.04" y1="184.61" x2="5286.60" y2="184.61" style="stroke:#F0F0F0;stroke-width:9.72"/>
	<line x1="652.56" y1="2766.66" x2="652.56" y2="2701.86" style="stroke:#F0F0F0;stroke-width:9.72"/>
	<line x1="652.56" y1="2669.46" x2="652.56" y2="2604.66" style="stroke:#F0F0F0;stroke-width:9.72"/>
	<line x1="652.56" y1="2572.26" x2="652.56" y2="2507.46" style="stroke:#F0F0F0;stroke-width:9.72"/>
	<line x1="652.56" y1="2475.06" x2="652.56" y2="2410.26" style="stroke:#F0F0F0;stroke-width:9.72"/>
	<line x1="652.56" y1="2377.86" x2="652.56" y2="2313.06" style="stroke:#F0F0F0;stroke-width:9.72"/>
	<line x1="652.56" y1="2280.66" x2="652.56" y2="2215.86" style="stroke:#F0F0F0;stroke-width:9.72"/>
	<line x1="652.56" y1="2183.46" x2="652.56" y2="2118.66" style="stroke:#F0F0F0;stroke-width:9.72"/>
	<line x1="652.56" y1="2086.26" x2="652.56" y2="2021.46" style="stroke:#F0F0F0;stroke-width:9.72"/>
	<line x1="652.56" y1="1989.06" x2="652.56" y2="1924.26" style="stroke:#F0F0F0;stroke-width:9.72"/>
	<line x1="652.56" y1="1891.86" x2="652.56" y2="1827.06" style="stroke:#F0F0F0;stroke-width:9.72"/>
	<line x1="652.56" y1="1794.66" x2="652.56" y2="1729.86" style="stroke:#F0F0F0;stroke-width:9.72"/>
	<line x1="652.56" y1="1697.46" x2="652.56" y2="1632.66" style="stroke:#F0F0F0;stroke-width:9.72"/>
	<line x1="652.56" y1="1600.26" x2="652.56" y2="1535.46" style="stroke:#F0F0F0;stroke-width:9.72"/>
	<line x1="652.56" y1="1503.06" x2="652.56" y2="1438.26" style="stroke:#F0F0F0;stroke-width:9.72"/>
	<line x1="652.56" y1="1405.86" x2="652.56" y2="1341.06" style="stroke:#F0F0F0;stroke-width:9.72"/>
	<line x1="652.56" y1="1308.66" x2="652.56" y2="1243.86" style="stroke:#F0F0F0;stroke-width:9.72"/>
	<line x1="652.56" y1="1211.46" x2="652.56" y2="1146.66" style="stroke:#F0F0F0;stroke-width:9.72"/>
	<line x1="652.56" y1="1114.26" x2="652.56" y2="1049.46" style="stroke:#F0F0F0;stroke-width:9.72"/>
	<line x1="652.56" y1="1017.06" x2="652.56" y2="952.26" style="stroke:#F0F0F0;stroke-width:9.72"/>
	<line x1="652.56" y1="919.86" x2="652.56" y2="855.06" style="stroke:#F0F0F0;stroke-width:9.72"/>
	<line x1="652.56" y1="822.66" x2="652.56" y2="757.86" style="stroke:#F0F0F0;stroke-width:9.72"/>
	<line x1="652.56" y1="725.46" x2="652.56" y2="660.66" style="stroke:#F0F0F0;stroke-width:9.72"/>
	<line x1="652.56" y1="628.26" x2="652.56" y2="563.46" style="stroke:#F0F0F0;stroke-width:9.72"/>
	<line x1="652.56" y1="531.06" x2="652.56" y2="466.26" style="stroke:#F0F0F0;stroke-width:9.72"/>
	<line x1="652.56" y1="433.86" x2="652.56" y2="369.06" style="stroke:#F0F0F0;stroke-width:9.72"/>
	<line x1="652.56" y1="336.66" x2="652.56" y2="271.86" style="stroke:#F0F0F0;stroke-width:9.72"/>
	<line x1="652.56" y1="239.46" x2="652.56" y2="174.66" style="stroke:#F0F0F0;stroke-width:9.72"/>
	<line x1="652.56" y1="142.26" x2="652.56" y2="113.40" style="stroke:#F0F0F0;stroke-width:9.72"/>
	<line x1="1413.11" y1="2766.66" x2="1413.11" y2="2701.86" style="stroke:#F0F0F0;stroke-width:9.72"/>
	<line x1="1413.11" y1="2669.46" x2="1413.11" y2="2604.66" style="stroke:#F0F0F0;stroke-width:9.72"/>
	<line x1="1413.11" y1="2572.26" x2="1413.11" y2="2507.46" style="stroke:#F0F0F0;stroke-width:9.72"/>
	<line x1="1413.11" y1="2475.06" x2="1413.11" y2="2410.26" style="stroke:#F0F0F0;stroke-width:9.72"/>
	<line x1="1413.11" y1="2377.86" x2="1413.11" y2="2313.06" style="stroke:#F0F0F0;stroke-width:9.72"/>
	<line x1="1413.11" y1="2280.66" x2="1413.11" y2="2215.86" style="stroke:#F0F0F0;stroke-width:9.72"/>
	<line x1="1413.11" y1="2183.46" x2="1413.11" y2="2118.66" style="stroke:#F0F0F0;stroke-width:9.72"/>
	<line x1="1413.11" y1="2086.26" x2="1413.11" y2="2021.46" style="stroke:#F0F0F0;stroke-width:9.72"/>
	<line x1="1413.11" y1="1989.06" x2="1413.11" y2="1924.26" style="stroke:#F0F0F0;stroke-width:9.72"/>
	<line x1="1413.11" y1="1891.86" x2="1413.11" y2="1827.06" style="stroke:#F0F0F0;stroke-width:9.72"/>
	<line x1="1413.11" y1="1794.66" x2="1413.11" y2="1729.86" style="stroke:#F0F0F0;stroke-width:9.72"/>
	<line x1="1413.11" y1="1697.46" x2="1413.11" y2="1632.66" style="stroke:#F0F0F0;stroke-width:9.72"/>
	<line x1="1413.11" y1="1600.26" x2="1413.11" y2="1535.46" style="stroke:#F0F0F0;stroke-width:9.72"/>
	<line x1="1413.11" y1="1503.06" x2="1413.11" y2="1438.26" style="stroke:#F0F0F0;stroke-width:9.72"/>
	<line x1="1413.11" y1="1405.86" x2="1413.11" y2="1341.06" style="stroke:#F0F0F0;stroke-width:9.72"/>
	<line x1="1413.11" y1="1308.66" x2="1413.11" y2="1243.86" style="stroke:#F0F0F0;stroke-width:9.72"/>
	<line x1="1413.11" y1="1211.46" x2="1413.11" y2="1146.66" style="stroke:#F0F0F0;stroke-width:9.72"/>
	<line x1="1413.11" y1="1114.26" x2="1413.11" y2="1049.46" style="stroke:#F0F0F0;stroke-width:9.72"/>
	<line x1="1413.11" y1="1017.06" x2="1413.11" y2="952.26" style="stroke:#F0F0F0;stroke-width:9.72"/>
	<line x1="1413.11" y1="919.86" x2="1413.11" y2="855.06" style="stroke:#F0F0F0;stroke-width:9.72"/>
	<line x1="1413.11" y1="822.66" x2="1413.11" y2="757.86" style="stroke:#F0F0F0;stroke-width:9.72"/>
	<line x1="1413.11" y1="725.46" x2="1413.11" y2="660.66" style="stroke:#F0F0F0;stroke-width:9.72"/>
	<line x1="1413.11" y1="628.26" x2="1413.11" y2="563.46" style="stroke:#F0F0F0;stroke-width:9.72"/>
	<line x1="1413.11" y1="531.06" x2="1413.11" y2="466.26" style="stroke:#F0F0F0;stroke-width:9.72"/>
	<line x1="1413.11" y1="433.86" x2="1413.11" y2="369.06" style="stroke:#F0F0F0;stroke-width:9.72"/>
	<line x1="1413.11" y1="336.66" x2="1413.11" y2="271.86" style="stroke:#F0F0F0;stroke-width:9.72"/>
	<line x1="1413.11" y1="239.46" x2="1413.11" y2="174.66" style="stroke:#F0F0F0;stroke-width:9.72"/>
	<line x1="1413.11" y1="142.26" x2="1413.11" y2="113.40" style="stroke:#F0F0F0;stroke-width:9.72"/>
	<line x1="2173.50" y1="2766.66" x2="2173.50" y2="2701.86" style="stroke:#F0F0F0;stroke-width:9.72"/>
	<line x1="2173.50" y1="2669.46" x2="2173.50" y2="2604.66" style="stroke:#F0F0F0;stroke-width:9.72"/>
	<line x1="2173.50" y1="2572.26" x2="2173.50" y2="2507.46" style="stroke:#F0F0F0;stroke-width:9.72"/>
	<line x1="2173.50" y1="2475.06" x2="2173.50" y2="2410.26" style="stroke:#F0F0F0;stroke-width:9.72"/>
	<line x1="2173.50" y1="2377.86" x2="2173.50" y2="2313.06" style="stroke:#F0F0F0;stroke-width:9.72"/>
	<line x1="2173.50" y1="2280.66" x2="2173.50" y2="2215.86" style="stroke:#F0F0F0;stroke-width:9.72"/>
	<line x1="2173.50" y1="2183.46" x2="2173.50" y2="2118.66" style="stroke:#F0F0F0;stroke-width:9.72"/>
	<line x1="2173.50" y1="2086.26" x2="2173.50" y2="2021.46" style="stroke:#F0F0F0;stroke-width:9.72"/>
	<line x1="2173.50" y1="1989.06" x2="2173.50" y2="1924.26" style="stroke:#F0F0F0;stroke-width:9.72"/>
	<line x1="2173.50" y1="1891.86" x2="2173.50" y2="1827.06" style="stroke:#F0F0F0;stroke-width:9.72"/>
	<line x1="2173.50" y1="1794.66" x2="2173.50" y2="1729.86" style="stroke:#F0F0F0;stroke-width:9.72"/>
	<line x1="2173.50" y1="1697.46" x2="2173.50" y2="1632.66" style="stroke:#F0F0F0;stroke-width:9.72"/>
	<line x1="2173.50" y1="1600.26" x2="2173.50" y2="1535.46" style="stroke:#F0F0F0;stroke-width:9.72"/>
	<line x1="2173.50" y1="1503.06" x2="2173.50" y2="1438.26" style="stroke:#F0F0F0;stroke-width:9.72"/>
	<line x1="2173.50" y1="1405.86" x2="2173.50" y2="1341.06" style="stroke:#F0F0F0;stroke-width:9.72"/>
	<line x1="2173.50" y1="1308.66" x2="2173.50" y2="1243.86" style="stroke:#F0F0F0;stroke-width:9.72"/>
	<line x1="2173.50" y1="1211.46" x2="2173.50" y2="1146.66" style="stroke:#F0F0F0;stroke-width:9.72"/>
	<line x1="2173.50" y1="1114.26" x2="2173.50" y2="1049.46" style="stroke:#F0F0F0;stroke-width:9.72"/>
	<line x1="2173.50" y1="1017.06" x2="2173.50" y2="952.26" style="stroke:#F0F0F0;stroke-width:9.72"/>
	<line x1="2173.50" y1="919.86" x2="2173.50" y2="855.06" style="stroke:#F0F0F0;stroke-width:9.72"/>
	<line x1="2173.50" y1="822.66" x2="2173.50" y2="757.86" style="stroke:#F0F0F0;stroke-width:9.72"/>
	<line x1="2173.50" y1="725.46" x2="2173.50" y2="660.66" style="stroke:#F0F0F0;stroke-width:9.72"/>
	<line x1="2173.50" y1="628.26" x2="2173.50" y2="563.46" style="stroke:#F0F0F0;stroke-width:9.72"/>
	<line x1="2173.50" y1="531.06" x2="2173.50" y2="466.26" style="stroke:#F0F0F0;stroke-width:9.72"/>
	<line x1="2173.50" y1="433.86" x2="2173.50" y2="369.06" style="stroke:#F0F0F0;stroke-width:9.72"/>
	<line x1="2173.50" y1="336.66" x2="2173.50" y2="271.86" style="stroke:#F0F0F0;stroke-width:9.72"/>
	<line x1="2173.50" y1="239.46" x2="2173.50" y2="174.66" style="stroke:#F0F0F0;stroke-width:9.72"/>
	<line x1="2173.50" y1="142.26" x2="2173.50" y2="113.40" style="stroke:#F0F0F0;stroke-width:9.72"/>
	<line x1="2933.89" y1="2766.66" x2="2933.89" y2="2701.86" style="stroke:#F0F0F0;stroke-width:9.72"/>
	<line x1="2933.89" y1="2669.46" x2="2933.89" y2="2604.66" style="stroke:#F0F0F0;stroke-width:9.72"/>
	<line x1="2933.89" y1="2572.26" x2="2933.89" y2="2507.46" style="stroke:#F0F0F0;stroke-width:9.72"/>
	<line x1="2933.89" y1="2475.06" x2="2933.89" y2="2410.26" style="stroke:#F0F0F0;stroke-width:9.72"/>
	<line x1="2933.89" y1="2377.86" x2="2933.89" y2="2313.06" style="stroke:#F0F0F0;stroke-width:9.72"/>
	<line x1="2933.89" y1="2280.66" x2="2933.89" y2="2215.86" style="stroke:#F0F0F0;stroke-width:9.72"/>
	<line x1="2933.89" y1="2183.46" x2="2933.89" y2="2118.66" style="stroke:#F0F0F0;stroke-width:9.72"/>
	<line x1="2933.89" y1="2086.26" x2="2933.89" y2="2021.46" style="stroke:#F0F0F0;stroke-width:9.72"/>
	<line x1="2933.89" y1="1989.06" x2="2933.89" y2="1924.26" style="stroke:#F0F0F0;stroke-width:9.72"/>
	<line x1="2933.89" y1="1891.86" x2="2933.89" y2="1827.06" style="stroke:#F0F0F0;stroke-width:9.72"/>
	<line x1="2933.89" y1="1794.66" x2="2933.89" y2="1729.86" style="stroke:#F0F0F0;stroke-width:9.72"/>
	<line x1="2933.89" y1="1697.46" x2="2933.89" y2="1632.66" style="stroke:#F0F0F0;stroke-width:9.72"/>
	<line x1="2933.89" y1="1600.26" x2="2933.89" y2="1535.46" style="stroke:#F0F0F0;stroke-width:9.72"/>
	<line x1="2933.89" y1="1503.06" x2="2933.89" y2="1438.26" style="stroke:#F0F0F0;stroke-width:9.72"/>
	<line x1="2933.89" y1="1405.86" x2="2933.89" y2="1341.06" style="stroke:#F0F0F0;stroke-width:9.72"/>
	<line x1="2933.89" y1="1308.66" x2="2933.89" y2="1243.86" style="stroke:#F0F0F0;stroke-width:9.72"/>
	<line x1="2933.89" y1="1211.46" x2="2933.89" y2="1146.66" style="stroke:#F0F0F0;stroke-width:9.72"/>
	<line x1="2933.89" y1="1114.26" x2="2933.89" y2="1049.46" style="stroke:#F0F0F0;stroke-width:9.72"/>
	<line x1="2933.89" y1="1017.06" x2="2933.89" y2="952.26" style="stroke:#F0F0F0;stroke-width:9.72"/>
	<line x1="2933.89" y1="919.86" x2="2933.89" y2="855.06" style="stroke:#F0F0F0;stroke-width:9.72"/>
	<line x1="2933.89" y1="822.66" x2="2933.89" y2="757.86" style="stroke:#F0F0F0;stroke-width:9.72"/>
	<line x1="2933.89" y1="725.46" x2="2933.89" y2="660.66" style="stroke:#F0F0F0;stroke-width:9.72"/>
	<line x1="2933.89" y1="628.26" x2="2933.89" y2="563.46" style="stroke:#F0F0F0;stroke-width:9.72"/>
	<line x1="2933.89" y1="531.06" x2="2933.89" y2="466.26" style="stroke:#F0F0F0;stroke-width:9.72"/>
	<line x1="2933.89" y1="433.86" x2="2933.89" y2="369.06" style="stroke:#F0F0F0;stroke-width:9.72"/>
	<line x1="2933.89" y1="336.66" x2="2933.89" y2="271.86" style="stroke:#F0F0F0;stroke-width:9.72"/>
	<line x1="2933.89" y1="239.46" x2="2933.89" y2="174.66" style="stroke:#F0F0F0;stroke-width:9.72"/>
	<line x1="2933.89" y1="142.26" x2="2933.89" y2="113.40" style="stroke:#F0F0F0;stroke-width:9.72"/>
	<line x1="3694.44" y1="2766.66" x2="3694.44" y2="2701.86" style="stroke:#F0F0F0;stroke-width:9.72"/>
	<line x1="3694.44" y1="2669.46" x2="3694.44" y2="2604.66" style="stroke:#F0F0F0;stroke-width:9.72"/>
	<line x1="3694.44" y1="2572.26" x2="3694.44" y2="2507.46" style="stroke:#F0F0F0;stroke-width:9.72"/>
	<line x1="3694.44" y1="2475.06" x2="3694.44" y2="2410.26" style="stroke:#F0F0F0;stroke-width:9.72"/>
	<line x1="3694.44" y1="2377.86" x2="3694.44" y2="2313.06" style="stroke:#F0F0F0;stroke-width:9.72"/>
	<line x1="3694.44" y1="2280.66" x2="3694.44" y2="2215.86" style="stroke:#F0F0F0;stroke-width:9.72"/>
	<line x1="3694.44" y1="2183.46" x2="3694.44" y2="2118.66" style="stroke:#F0F0F0;stroke-width:9.72"/>
	<line x1="3694.44" y1="2086.26" x2="3694.44" y2="2021.46" style="stroke:#F0F0F0;stroke-width:9.72"/>
	<line x1="3694.44" y1="1989.06" x2="3694.44" y2="1924.26" style="stroke:#F0F0F0;stroke-width:9.72"/>
	<line x1="3694.44" y1="1891.86" x2="3694.44" y2="1827.06" style="stroke:#F0F0F0;stroke-width:9.72"/>
	<line x1="3694.44" y1="1794.66" x2="3694.44" y2="1729.86" style="stroke:#F0F0F0;stroke-width:9.72"/>
	<line x1="3694.44" y1="1697.46" x2="3694.44" y2="1632.66" style="stroke:#F0F0F0;stroke-width:9.72"/>
	<line x1="3694.44" y1="1600.26" x2="3694.44" y2="1535.46" style="stroke:#F0F0F0;stroke-width:9.72"/>
	<line x1="3694.44" y1="1503.06" x2="3694.44" y2="1438.26" style="stroke:#F0F0F0;stroke-width:9.72"/>
	<line x1="3694.44" y1="1405.86" x2="3694.44" y2="1341.06" style="stroke:#F0F0F0;stroke-width:9.72"/>
	<line x1="3694.44" y1="1308.66" x2="3694.44" y2="1243.86" style="stroke:#F0F0F0;stroke-width:9.72"/>
	<line x1="3694.44" y1="1211.46" x2="3694.44" y2="1146.66" style="stroke:#F0F0F0;stroke-width:9.72"/>
	<line x1="3694.44" y1="1114.26" x2="3694.44" y2="1049.46" style="stroke:#F0F0F0;stroke-width:9.72"/>
	<line x1="3694.44" y1="1017.06" x2="3694.44" y2="952.26" style="stroke:#F0F0F0;stroke-width:9.72"/>
	<line x1="3694.44" y1="919.86" x2="3694.44" y2="855.06" style="stroke:#F0F0F0;stroke-width:9.72"/>
	<line x1="3694.44" y1="822.66" x2="3694.44" y2="757.86" style="stroke:#F0F0F0;stroke-width:9.72"/>
	<line x1="3694.44" y1="725.46" x2="3694.44" y2="660.66" style="stroke:#F0F0F0;stroke-width:9.72"/>
	<line x1="3694.44" y1="628.26" x2="3694.44" y2="563.46" style="stroke:#F0F0F0;stroke-width:9.72"/>
	<line x1="3694.44" y1="531.06" x2="3694.44" y2="466.26" style="stroke:#F0F0F0;stroke-width:9.72"/>
	<line x1="3694.44" y1="433.86" x2="3694.44" y2="369.06" style="stroke:#F0F0F0;stroke-width:9.72"/>
	<line x1="3694.44" y1="336.66" x2="3694.44" y2="271.86" style="stroke:#F0F0F0;stroke-width:9.72"/>
	<line x1="3694.44" y1="239.46" x2="3694.44" y2="174.66" style="stroke:#F0F0F0;stroke-width:9.72"/>
	<line x1="3694.44" y1="142.26" x2="3694.44" y2="113.40" style="stroke:#F0F0F0;stroke-width:9.72"/>
	<line x1="4454.83" y1="2766.66" x2="4454.83" y2="2701.86" style="stroke:#F0F0F0;stroke-width:9.72"/>
	<line x1="4454.83" y1="2669.46" x2="4454.83" y2="2604.66" style="stroke:#F0F0F0;stroke-width:9.72"/>
	<line x1="4454.83" y1="2572.26" x2="4454.83" y2="2507.46" style="stroke:#F0F0F0;stroke-width:9.72"/>
	<line x1="4454.83" y1="2475.06" x2="4454.83" y2="2410.26" style="stroke:#F0F0F0;stroke-width:9.72"/>
	<line x1="4454.83" y1="2377.86" x2="4454.83" y2="2313.06" style="stroke:#F0F0F0;stroke-width:9.72"/>
	<line x1="4454.83" y1="2280.66" x2="4454.83" y2="2215.86" style="stroke:#F0F0F0;stroke-width:9.72"/>
	<line x1="4454.83" y1="2183.46" x2="4454.83" y2="2118.66" style="stroke:#F0F0F0;stroke-width:9.72"/>
	<line x1="4454.83" y1="2086.26" x2="4454.83" y2="2021.46" style="stroke:#F0F0F0;stroke-width:9.72"/>
	<line x1="4454.83" y1="1989.06" x2="4454.83" y2="1924.26" style="stroke:#F0F0F0;stroke-width:9.72"/>
	<line x1="4454.83" y1="1891.86" x2="4454.83" y2="1827.06" style="stroke:#F0F0F0;stroke-width:9.72"/>
	<line x1="4454.83" y1="1794.66" x2="4454.83" y2="1729.86" style="stroke:#F0F0F0;stroke-width:9.72"/>
	<line x1="4454.83" y1="1697.46" x2="4454.83" y2="1632.66" style="stroke:#F0F0F0;stroke-width:9.72"/>
	<line x1="4454.83" y1="1600.26" x2="4454.83" y2="1535.46" style="stroke:#F0F0F0;stroke-width:9.72"/>
	<line x1="4454.83" y1="1503.06" x2="4454.83" y2="1438.26" style="stroke:#F0F0F0;stroke-width:9.72"/>
	<line x1="4454.83" y1="1405.86" x2="4454.83" y2="1341.06" style="stroke:#F0F0F0;stroke-width:9.72"/>
	<line x1="4454.83" y1="1308.66" x2="4454.83" y2="1243.86" style="stroke:#F0F0F0;stroke-width:9.72"/>
	<line x1="4454.83" y1="1211.46" x2="4454.83" y2="1146.66" style="stroke:#F0F0F0;stroke-width:9.72"/>
	<line x1="4454.83" y1="1114.26" x2="4454.83" y2="1049.46" style="stroke:#F0F0F0;stroke-width:9.72"/>
	<line x1="4454.83" y1="1017.06" x2="4454.83" y2="952.26" style="stroke:#F0F0F0;stroke-width:9.72"/>
	<line x1="4454.83" y1="919.86" x2="4454.83" y2="855.06" style="stroke:#F0F0F0;stroke-width:9.72"/>
	<line x1="4454.83" y1="822.66" x2="4454.83" y2="757.86" style="stroke:#F0F0F0;stroke-width:9.72"/>
	<line x1="4454.83" y1="725.46" x2="4454.83" y2="660.66" style="stroke:#F0F0F0;stroke-width:9.72"/>
	<line x1="4454.83" y1="628.26" x2="4454.83" y2="563.46" style="stroke:#F0F0F0;stroke-width:9.72"/>
	<line x1="4454.83" y1="531.06" x2="4454.83" y2="466.26" style="stroke:#F0F0F0;stroke-width:9.72"/>
	<line x1="4454.83" y1="433.86" x2="4454.83" y2="369.06" style="stroke:#F0F0F0;stroke-width:9.72"/>
	<line x1="4454.83" y1="336.66" x2="4454.83" y2="271.86" style="stroke:#F0F0F0;stroke-width:9.72"/>
	<line x1="4454.83" y1="239.46" x2="4454.83" y2="174.66" style="stroke:#F0F0F0;stroke-width:9.72"/>
	<line x1="4454.83" y1="142.26" x2="4454.83" y2="113.40" style="stroke:#F0F0F0;stroke-width:9.72"/>
	<line x1="5215.39" y1="2766.66" x2="5215.39" y2="2701.86" style="stroke:#F0F0F0;stroke-width:9.72"/>
	<line x1="5215.39" y1="2669.46" x2="5215.39" y2="2604.66" style="stroke:#F0F0F0;stroke-width:9.72"/>
	<line x1="5215.39" y1="2572.26" x2="5215.39" y2="2507.46" style="stroke:#F0F0F0;stroke-width:9.72"/>
	<line x1="5215.39" y1="2475.06" x2="5215.39" y2="2410.26" style="stroke:#F0F0F0;stroke-width:9.72"/>
	<line x1="5215.39" y1="2377.86" x2="5215.39" y2="2313.06" style="stroke:#F0F0F0;stroke-width:9.72"/>
	<line x1="5215.39" y1="2280.66" x2="5215.39" y2="2215.86" style="stroke:#F0F0F0;stroke-width:9.72"/>
	<line x1="5215.39" y1="2183.46" x2="5215.39" y2="2118.66" style="stroke:#F0F0F0;stroke-width:9.72"/>
	<line x1="5215.39" y1="2086.26" x2="5215.39" y2="2021.46" style="stroke:#F0F0F0;stroke-width:9.72"/>
	<line x1="5215.39" y1="1989.06" x2="5215.39" y2="1924.26" style="stroke:#F0F0F0;stroke-width:9.72"/>
	<line x1="5215.39" y1="1891.86" x2="5215.39" y2="1827.06" style="stroke:#F0F0F0;stroke-width:9.72"/>
	<line x1="5215.39" y1="1794.66" x2="5215.39" y2="1729.86" style="stroke:#F0F0F0;stroke-width:9.72"/>
	<line x1="5215.39" y1="1697.46" x2="5215.39" y2="1632.66" style="stroke:#F0F0F0;stroke-width:9.72"/>
	<line x1="5215.39" y1="1600.26" x2="5215.39" y2="1535.46" style="stroke:#F0F0F0;stroke-width:9.72"/>
	<line x1="5215.39" y1="1503.06" x2="5215.39" y2="1438.26" style="stroke:#F0F0F0;stroke-width:9.72"/>
	<line x1="5215.39" y1="1405.86" x2="5215.39" y2="1341.06" style="stroke:#F0F0F0;stroke-width:9.72"/>
	<line x1="5215.39" y1="1308.66" x2="5215.39" y2="1243.86" style="stroke:#F0F0F0;stroke-width:9.72"/>
	<line x1="5215.39" y1="1211.46" x2="5215.39" y2="1146.66" style="stroke:#F0F0F0;stroke-width:9.72"/>
	<line x1="5215.39" y1="1114.26" x2="5215.39" y2="1049.46" style="stroke:#F0F0F0;stroke-width:9.72"/>
	<line x1="5215.39" y1="1017.06" x2="5215.39" y2="952.26" style="stroke:#F0F0F0;stroke-width:9.72"/>
	<line x1="5215.39" y1="919.86" x2="5215.39" y2="855.06" style="stroke:#F0F0F0;stroke-width:9.72"/>
	<line x1="5215.39" y1="822.66" x2="5215.39" y2="757.86" style="stroke:#F0F0F0;stroke-width:9.72"/>
	<line x1="5215.39" y1="725.46" x2="5215.39" y2="660.66" style="stroke:#F0F0F0;stroke-width:9.72"/>
	<line x1="5215.39" y1="628.26" x2="5215.39" y2="563.46" style="stroke:#F0F0F0;stroke-width:9.72"/>
	<line x1="5215.39" y1="531.06" x2="5215.39" y2="466.26" style="stroke:#F0F0F0;stroke-width:9.72"/>
	<line x1="5215.39" y1="433.86" x2="5215.39" y2="369.06" style="stroke:#F0F0F0;stroke-width:9.72"/>
	<line x1="5215.39" y1="336.66" x2="5215.39" y2="271.86" style="stroke:#F0F0F0;stroke-width:9.72"/>
	<line x1="5215.39" y1="239.46" x2="5215.39" y2="174.66" style="stroke:#F0F0F0;stroke-width:9.72"/>
	<line x1="5215.39" y1="142.26" x2="5215.39" y2="113.40" style="stroke:#F0F0F0;stroke-width:9.72"/>
	<rect x="1869.24" y="2758.05" width="152.21" height="8.61" style="fill:#3191FF"/>
	<rect x="1871.67" y="2760.48" width="147.35" height="3.75" style="fill:none;stroke:#5FAAFF;stroke-width:4.86"/>
	<rect x="2021.46" y="2732.23" width="152.04" height="34.43" style="fill:#3191FF"/>
	<rect x="2023.89" y="2734.66" width="147.18" height="29.57" style="fill:none;stroke:#5FAAFF;stroke-width:4.86"/>
	<rect x="2173.50" y="2241.68" width="152.04" height="524.98" style="fill:#3191FF"/>
	<rect x="2175.93" y="2244.11" width="147.18" height="520.12" style="fill:none;stroke:#5FAAFF;stroke-width:4.86"/>
	<rect x="2325.54" y="1467.11" width="152.21" height="1299.54" style="fill:#3191FF"/>
	<rect x="2327.97" y="1469.54" width="147.35" height="1294.68" style="fill:none;stroke:#5FAAFF;stroke-width:4.86"/>
	<rect x="2477.76" y="296.49" width="152.04" height="2470.16" style="fill:#3191FF"/>
	<rect x="2480.19" y="298.92" width="147.18" height="2465.30" style="fill:none;stroke:#5FAAFF;stroke-width:4.86"/>
	<rect x="2629.80" y="657.96" width="152.04" height="2108.70" style="fill:#3191FF"/>
	<rect x="2632.23" y="660.39" width="147.18" height="2103.84" style="fill:none;stroke:#5FAAFF;stroke-width:4.86"/>
	<rect x="2781.84" y="1286.38" width="152.04" height="1480.28" style="fill:#3191FF"/>
	<rect x="2784.27" y="1288.81" width="147.18" height="1475.42" style="fill:none;stroke:#5FAAFF;stroke-width:4.86"/>
	<rect x="2933.89" y="2284.71" width="152.21" height="481.95" style="fill:#3191FF"/>
	<rect x="2936.32" y="2287.14" width="147.35" height="477.09" style="fill:none;stroke:#5FAAFF;stroke-width:4.86"/>
	<rect x="3086.10" y="2620.35" width="152.04" height="146.31" style="fill:#3191FF"/>
	<rect x="3088.53" y="2622.78" width="147.18" height="141.45" style="fill:none;stroke:#5FAAFF;stroke-width:4.86"/>
	<rect x="3238.14" y="2715.02" width="152.04" height="51.64" style="fill:#3191FF"/>
	<rect x="3240.57" y="2717.45" width="147.18" height="46.78" style="fill:none;stroke:#5FAAFF;stroke-width:4.86"/>
	<line x1="505.24" y1="2766.66" x2="505.24" y2="113.40" style="stroke:#000000;stroke-width:6.48"/>
	<line x1="505.24" y1="2766.66" x2="460.35" y2="2766.66" style="stroke:#000000;stroke-width:6.48"/>
	<text x="437.74" y="2806.09" style="font-family:'Helvetica';font-size:112.56px;fill:#000000" text-anchor="end">0</text>
	<line x1="505.24" y1="1906.03" x2="460.35" y2="1906.03" style="stroke:#000000;stroke-width:6.48"/>
	<text x="437.74" y="1945.47" style="font-family:'Helvetica';font-size:112.56px;fill:#000000" text-anchor="end">10</text>
	<line x1="505.24" y1="1045.41" x2="460.35" y2="1045.41" style="stroke:#000000;stroke-width:6.48"/>
	<text x="437.74" y="1084.84" style="font-family:'Helvetica';font-size:112.56px;fill:#000000" text-anchor="end">20</text>
	<line x1="505.24" y1="184.61" x2="460.35" y2="184.61" style="stroke:#000000;stroke-width:6.48"/>
	<text x="437.74" y="224.05" style="font-family:'Helvetica';font-size:112.56px;fill:#000000" text-anchor="end">30</text>
	<text x="214.55" y="1439.94" style="font-family:'Helvetica';font-size:112.56px;fill:#000000" transform="rotate(-90 214.55,1439.94)" text-anchor="middle">Percent</text>
	<line x1="505.24" y1="2766.66" x2="5286.60" y2="2766.66" style="stroke:#000000;stroke-width:6.48"/>
	<line x1="652.56" y1="2766.66" x2="652.56" y2="2811.54" style="stroke:#000000;stroke-width:6.48"/>
	<text x="652.56" y="2912.86" style="font-family:'Helvetica';font-size:112.56px;fill:#000000" text-anchor="middle">0</text>
	<line x1="1413.11" y1="2766.66" x2="1413.11" y2="2811.54" style="stroke:#000000;stroke-width:6.48"/>
	<text x="1413.11" y="2912.86" style="font-family:'Helvetica';font-size:112.56px;fill:#000000" text-anchor="middle">.05</text>
	<line x1="2173.50" y1="2766.66" x2="2173.50" y2="2811.54" style="stroke:#000000;stroke-width:6.48"/>
	<text x="2173.50" y="2912.86" style="font-family:'Helvetica';font-size:112.56px;fill:#000000" text-anchor="middle">.1</text>
	<line x1="2933.89" y1="2766.66" x2="2933.89" y2="2811.54" style="stroke:#000000;stroke-width:6.48"/>
	<text x="2933.89" y="2912.86" style="font-family:'Helvetica';font-size:112.56px;fill:#000000" text-anchor="middle">.15</text>
	<line x1="3694.44" y1="2766.66" x2="3694.44" y2="2811.54" style="stroke:#000000;stroke-width:6.48"/>
	<text x="3694.44" y="2912.86" style="font-family:'Helvetica';font-size:112.56px;fill:#000000" text-anchor="middle">.2</text>
	<line x1="4454.83" y1="2766.66" x2="4454.83" y2="2811.54" style="stroke:#000000;stroke-width:6.48"/>
	<text x="4454.83" y="2912.86" style="font-family:'Helvetica';font-size:112.56px;fill:#000000" text-anchor="middle">.25</text>
	<line x1="5215.39" y1="2766.66" x2="5215.39" y2="2811.54" style="stroke:#000000;stroke-width:6.48"/>
	<text x="5215.39" y="2912.86" style="font-family:'Helvetica';font-size:112.56px;fill:#000000" text-anchor="middle">.3</text>
	<text x="2895.92" y="3070.31" style="font-family:'Helvetica';font-size:112.56px;fill:#000000" text-anchor="middle">% red</text>
</svg>
